<?xml version="1.0" encoding="utf-8"?>
<!-- Generator: Adobe Illustrator 16.0.0, SVG Export Plug-In . SVG Version: 6.00 Build 0)  -->
<!DOCTYPE svg PUBLIC "-//W3C//DTD SVG 1.1//EN" "http://www.w3.org/Graphics/SVG/1.1/DTD/svg11.dtd">
<svg version="1.1" id="Layer_1" xmlns="http://www.w3.org/2000/svg" xmlns:xlink="http://www.w3.org/1999/xlink" x="0px" y="0px"
	 width="1280px" height="812.5px" viewBox="0 0 1280 812.5" enable-background="new 0 0 1280 812.5" xml:space="preserve">
<g>
	<polygon fill="#80BDFF" points="160.178,136.502 160.178,100 0,100 0,260.176 36.503,260.176 36.503,136.502 	"/>
</g>
<g>
	<polygon fill="#80BDFF" points="36.503,532.378 0.001,532.378 0.001,692.556 160.177,692.556 160.177,656.053 36.503,656.053 	"/>
</g>
<g>
	<polygon fill="#80BDFF" points="1119.822,656.054 1119.822,692.556 1280,692.556 1280,532.38 1243.497,532.38 1243.497,656.054 	
		"/>
</g>
<g>
	<polygon fill="#80BDFF" points="1243.498,260.178 1280,260.178 1280,100 1119.824,100 1119.824,136.503 1243.498,136.503 	"/>
</g>
<g>
	<path fill="#80BDFF" d="M15.851,36.85v20.777H4.371V3.483h15.777c7.356,0,12.801,1.339,16.333,4.018
		c3.529,2.68,5.296,6.747,5.296,12.204c0,3.184-0.876,6.018-2.63,8.499c-1.753,2.482-4.235,4.426-7.444,5.833l15.926,23.591h-12.74
		L21.963,36.851L15.851,36.85L15.851,36.85z M15.851,27.518h3.705c3.628,0,6.308-0.604,8.036-1.814
		c1.728-1.209,2.593-3.111,2.593-5.704c0-2.567-0.883-4.394-2.648-5.48c-1.766-1.087-4.5-1.629-8.204-1.629h-3.48v14.628
		L15.851,27.518L15.851,27.518z"/>
	<path fill="#80BDFF" d="M72.292,58.369c-6.667,0-11.875-1.84-15.627-5.519c-3.754-3.679-5.63-8.888-5.63-15.628
		c0-6.938,1.735-12.301,5.204-16.092c3.469-3.79,8.265-5.686,14.388-5.686c5.851,0,10.407,1.667,13.666,5
		c3.259,3.333,4.889,7.938,4.889,13.813v5.481H62.479c0.123,3.209,1.074,5.716,2.852,7.519c1.777,1.802,4.271,2.703,7.48,2.703
		c2.493,0,4.852-0.259,7.074-0.778c2.222-0.519,4.542-1.346,6.962-2.481v8.74c-1.975,0.987-4.087,1.722-6.333,2.204
		C78.267,58.127,75.526,58.369,72.292,58.369z M70.7,23.482c-2.395,0-4.271,0.758-5.629,2.277c-1.359,1.519-2.136,3.673-2.333,6.463
		h15.851c-0.049-2.791-0.778-4.944-2.185-6.463C74.995,24.24,73.095,23.482,70.7,23.482z"/>
	<path fill="#80BDFF" d="M109.661,57.627H98.366V0.001h11.295V57.627z"/>
	<path fill="#80BDFF" d="M147.805,57.627l-2.184-5.63h-0.296c-1.901,2.395-3.858,4.056-5.87,4.981
		c-2.012,0.926-4.636,1.389-7.87,1.389c-3.976,0-7.105-1.136-9.389-3.407c-2.284-2.271-3.426-5.504-3.426-9.703
		c0-4.394,1.538-7.635,4.611-9.722c3.073-2.086,7.709-3.241,13.906-3.462l7.185-0.223v-1.814c0-4.198-2.148-6.297-6.444-6.297
		c-3.309,0-7.197,1-11.666,3l-3.74-7.628c4.765-2.493,10.049-3.741,15.851-3.741c5.555,0,9.814,1.21,12.777,3.629
		c2.963,2.42,4.445,6.099,4.445,11.037v27.591H147.805z M144.473,38.443l-4.371,0.148c-3.283,0.1-5.728,0.692-7.333,1.778
		s-2.408,2.741-2.408,4.962c0,3.184,1.828,4.777,5.481,4.777c2.616,0,4.709-0.753,6.277-2.259c1.567-1.506,2.352-3.506,2.352-5.999
		L144.473,38.443L144.473,38.443z"/>
	<path fill="#80BDFF" d="M184.766,49.369c1.976,0,4.346-0.432,7.11-1.297v8.407c-2.813,1.259-6.271,1.889-10.37,1.889
		c-4.518,0-7.809-1.142-9.87-3.426c-2.062-2.284-3.093-5.709-3.093-10.277V24.703h-5.407v-4.777l6.221-3.777l3.26-8.74h7.221v8.814
		h11.592v8.481h-11.591v19.962c0,1.605,0.451,2.79,1.353,3.554C182.095,48.986,183.286,49.369,184.766,49.369z"/>
	<path fill="#80BDFF" d="M218.987,58.369c-6.667,0-11.876-1.84-15.628-5.519c-3.753-3.679-5.629-8.888-5.629-15.628
		c0-6.938,1.735-12.301,5.204-16.092c3.469-3.79,8.265-5.686,14.388-5.686c5.851,0,10.406,1.667,13.665,5
		c3.26,3.333,4.889,7.938,4.889,13.813v5.481h-26.702c0.123,3.209,1.074,5.716,2.852,7.519c1.777,1.802,4.271,2.703,7.48,2.703
		c2.493,0,4.851-0.259,7.074-0.778c2.222-0.519,4.542-1.346,6.962-2.481v8.74c-1.976,0.987-4.086,1.722-6.333,2.204
		C224.962,58.128,222.221,58.369,218.987,58.369z M217.394,23.482c-2.395,0-4.271,0.758-5.63,2.277
		c-1.358,1.519-2.135,3.673-2.333,6.463h15.85c-0.049-2.791-0.778-4.944-2.184-6.463C221.69,24.24,219.789,23.482,217.394,23.482z"
		/>
	<path fill="#80BDFF" d="M258.171,58.369c-4.864,0-8.687-1.889-11.462-5.666c-2.778-3.777-4.167-9.012-4.167-15.703
		c0-6.791,1.414-12.079,4.241-15.87c2.827-3.79,6.722-5.685,11.685-5.685c5.209,0,9.186,2.025,11.925,6.074h0.37
		c-0.568-3.086-0.852-5.839-0.852-8.259V0h11.333v57.626h-8.667l-2.186-5.371h-0.482C267.341,56.331,263.429,58.369,258.171,58.369z
		 M262.133,49.369c2.888,0,5.005-0.839,6.351-2.518c1.345-1.678,2.079-4.53,2.203-8.555v-1.222c0-4.445-0.685-7.629-2.056-9.556
		c-1.371-1.927-3.6-2.889-6.686-2.889c-2.518,0-4.474,1.068-5.869,3.204c-1.395,2.135-2.093,5.241-2.093,9.315
		c0,4.074,0.705,7.129,2.111,9.166C257.503,48.351,259.516,49.369,262.133,49.369z"/>
	<g>
		<path fill="#80BDFF" d="M340.502,58.378h-24.628V51.86l6.593-3.037V13.788l-6.593-3.036V4.233h24.628v6.519l-6.592,3.037v35.035
			l6.592,3.037V58.378z"/>
		<path fill="#80BDFF" d="M385.944,58.378h-11.296V34.195c0-2.987-0.5-5.229-1.5-6.721c-1-1.494-2.573-2.241-4.722-2.241
			c-2.888,0-4.987,1.062-6.295,3.184c-1.31,2.125-1.963,5.617-1.963,10.481v19.48h-11.295V16.974h8.628l1.518,5.295h0.63
			c1.11-1.901,2.716-3.389,4.815-4.463c2.097-1.074,4.505-1.612,7.222-1.612c6.196,0,10.394,2.025,12.592,6.074h1
			c1.11-1.926,2.746-3.42,4.907-4.481c2.159-1.061,4.598-1.593,7.313-1.593c4.691,0,8.24,1.204,10.647,3.611
			c2.408,2.408,3.611,6.266,3.611,11.574v26.998h-11.333V34.195c0-2.987-0.5-5.229-1.5-6.721c-1-1.494-2.574-2.241-4.722-2.241
			c-2.766,0-4.833,0.987-6.204,2.962c-1.371,1.976-2.056,5.111-2.056,9.407v20.776H385.944L385.944,58.378z"/>
		<path fill="#80BDFF" d="M449.644,58.378l-2.185-5.629h-0.296c-1.901,2.395-3.858,4.056-5.871,4.981
			c-2.012,0.925-4.635,1.389-7.869,1.389c-3.976,0-7.105-1.136-9.389-3.407s-3.426-5.505-3.426-9.703
			c0-4.394,1.537-7.635,4.611-9.722c3.074-2.086,7.709-3.241,13.907-3.462l7.184-0.223v-1.814c0-4.198-2.148-6.297-6.444-6.297
			c-3.31,0-7.197,1-11.666,3l-3.741-7.629c4.765-2.494,10.049-3.741,15.851-3.741c5.555,0,9.815,1.209,12.778,3.63
			c2.963,2.419,4.445,6.099,4.445,11.036v27.59L449.644,58.378L449.644,58.378z M446.311,39.195l-4.37,0.148
			c-3.284,0.099-5.729,0.692-7.333,1.778s-2.408,2.741-2.408,4.962c0,3.184,1.827,4.777,5.481,4.777
			c2.617,0,4.709-0.753,6.277-2.259c1.568-1.506,2.352-3.505,2.352-6L446.311,39.195L446.311,39.195z"/>
		<path fill="#80BDFF" d="M505.345,58.453c0,5.949-1.735,10.462-5.204,13.537c-3.469,3.073-8.635,4.611-15.5,4.611
			c-6.049,0-11.208-0.815-15.48-2.444V65.12c5.011,2.123,10.394,3.184,16.147,3.184c5.802,0,8.703-3.136,8.703-9.406v-0.814
			l0.333-5.075h-0.333c-2.643,4.075-6.556,6.111-11.74,6.111c-4.963,0-8.808-1.914-11.535-5.74
			c-2.729-3.827-4.094-9.037-4.094-15.628c0-6.791,1.414-12.08,4.241-15.871c2.827-3.79,6.722-5.685,11.685-5.685
			c5.085,0,9.085,2.025,11.999,6.074h0.295l0.926-5.296h9.555v41.479H505.345z M486.308,50.269c3.037,0,5.208-0.872,6.518-2.612
			c1.308-1.741,1.963-4.562,1.963-8.462v-1.37c0-4.42-0.686-7.599-2.056-9.537c-1.37-1.938-3.574-2.907-6.611-2.907
			c-5.309,0-7.962,4.173-7.962,12.518c0,4.148,0.66,7.246,1.982,9.296C481.462,49.244,483.518,50.269,486.308,50.269z"/>
		<path fill="#80BDFF" d="M535.898,59.12c-6.667,0-11.876-1.839-15.628-5.519c-3.754-3.679-5.63-8.888-5.63-15.628
			c0-6.938,1.735-12.302,5.204-16.091c3.469-3.79,8.265-5.685,14.388-5.685c5.852,0,10.407,1.667,13.666,5
			c3.259,3.333,4.889,7.938,4.889,13.814v5.481h-26.702c0.124,3.209,1.074,5.716,2.852,7.518c1.778,1.802,4.271,2.704,7.481,2.704
			c2.494,0,4.852-0.26,7.074-0.778c2.222-0.52,4.543-1.346,6.963-2.481v8.739c-1.976,0.987-4.087,1.722-6.333,2.203
			C541.872,58.878,539.132,59.12,535.898,59.12z M534.306,24.233c-2.395,0-4.271,0.759-5.629,2.278
			c-1.358,1.518-2.136,3.672-2.333,6.462h15.851c-0.049-2.79-0.779-4.944-2.185-6.462C538.602,24.992,536.701,24.233,534.306,24.233
			z"/>
		<path fill="#80BDFF" d="M585.08,16.196c1.53,0,2.802,0.112,3.814,0.334l-0.851,10.592c-0.915-0.247-2.025-0.37-3.333-0.37
			c-3.604,0-6.414,0.925-8.426,2.777c-2.013,1.852-3.018,4.445-3.018,7.778v21.072H561.97V16.975h8.556l1.667,6.963h0.555
			c1.283-2.321,3.019-4.19,5.204-5.611C580.136,16.907,582.512,16.196,585.08,16.196z"/>
		<path fill="#80BDFF" d="M590.487,16.974h12.369l7.815,23.295c0.667,2.026,1.123,4.42,1.371,7.186h0.222
			c0.27-2.543,0.802-4.938,1.591-7.186l7.667-23.295h12.111l-17.518,46.701c-1.605,4.32-3.895,7.556-6.87,9.703
			c-2.975,2.148-6.451,3.222-10.425,3.222c-1.951,0-3.864-0.21-5.741-0.629v-8.963c1.358,0.321,2.839,0.481,4.444,0.481
			c2.001,0,3.747-0.611,5.241-1.833c1.493-1.222,2.66-3.068,3.499-5.537l0.668-2.037L590.487,16.974z"/>
	</g>
</g>
<g>
	<path fill="#80BDFF" d="M1089.122,57.627V3.483h11.482v44.664h21.962v9.481L1089.122,57.627L1089.122,57.627z"/>
	<path fill="#80BDFF" d="M1130.601,5.519c0-3.679,2.049-5.518,6.147-5.518s6.147,1.839,6.147,5.518c0,1.754-0.512,3.118-1.536,4.092
		c-1.024,0.976-2.562,1.463-4.611,1.463C1132.649,11.074,1130.601,9.223,1130.601,5.519z M1142.378,57.627h-11.295V16.223h11.295
		V57.627z"/>
	<path fill="#80BDFF" d="M1192.449,57.627h-11.296V33.443c0-2.986-0.53-5.228-1.592-6.722c-1.062-1.492-2.752-2.24-5.074-2.24
		c-3.159,0-5.444,1.055-6.852,3.167c-1.408,2.112-2.111,5.61-2.111,10.5v19.48h-11.296V16.223h8.629l1.519,5.296h0.633
		c1.258-2.001,2.99-3.513,5.201-4.537c2.21-1.024,4.723-1.537,7.537-1.537c4.813,0,8.469,1.303,10.963,3.907
		c2.493,2.605,3.739,6.363,3.739,11.277V57.627L1192.449,57.627z"/>
	<path fill="#80BDFF" d="M1214.929,35.111l4.928-6.297l11.592-12.593h12.739l-16.443,17.962l17.444,23.444h-13.037l-11.925-16.776
		l-4.853,3.889v12.888h-11.297V0.001h11.297v25.702l-0.593,9.407L1214.929,35.111L1214.929,35.111z"/>
	<path fill="#80BDFF" d="M1280,45.332c0,4.247-1.476,7.481-4.426,9.703s-7.363,3.333-13.239,3.333c-3.014,0-5.58-0.204-7.703-0.61
		c-2.123-0.408-4.11-1.006-5.963-1.797v-9.333c2.1,0.987,4.465,1.814,7.092,2.482c2.632,0.666,4.945,1,6.944,1
		c4.101,0,6.148-1.185,6.148-3.555c0-0.889-0.271-1.611-0.814-2.167c-0.542-0.555-1.48-1.185-2.813-1.889s-3.111-1.524-5.334-2.462
		c-3.185-1.334-5.523-2.567-7.02-3.704c-1.493-1.135-2.579-2.438-3.258-3.908c-0.679-1.469-1.02-3.277-1.02-5.426
		c0-3.678,1.427-6.523,4.276-8.536c2.854-2.012,6.896-3.018,12.131-3.018c4.987,0,9.838,1.087,14.556,3.258l-3.408,8.148
		c-2.072-0.889-4.015-1.617-5.815-2.185c-1.802-0.567-3.642-0.852-5.518-0.852c-3.332,0-4.999,0.901-4.999,2.704
		c0,1.013,0.538,1.889,1.611,2.629c1.072,0.741,3.426,1.84,7.055,3.296c3.234,1.308,5.604,2.531,7.112,3.667
		c1.504,1.136,2.615,2.444,3.332,3.926C1279.642,41.517,1280,43.282,1280,45.332z"/>
</g>
<g>
	<path fill="#80BDFF" d="M898.318,794.335l-3.926-12.889h-19.739l-3.926,12.889h-12.369l19.107-54.367h14.037l19.186,54.367H898.318
		z M891.652,771.817c-3.628-11.678-5.673-18.281-6.129-19.812c-0.457-1.531-0.783-2.74-0.981-3.631
		c-0.812,3.16-3.147,10.977-6.998,23.443H891.652z"/>
	<path fill="#80BDFF" d="M945.945,794.335l-1.519-5.297h-0.592c-1.211,1.926-2.926,3.416-5.147,4.463
		c-2.224,1.051-4.753,1.576-7.593,1.576c-4.864,0-8.531-1.303-10.999-3.908c-2.47-2.604-3.705-6.352-3.705-11.238v-26.998h11.298
		v24.184c0,2.988,0.53,5.23,1.59,6.723c1.062,1.494,2.753,2.24,5.076,2.24c3.159,0,5.443-1.057,6.852-3.164
		c1.407-2.113,2.109-5.611,2.109-10.502v-19.479h11.298v41.404h-8.668V794.335z"/>
	<path fill="#80BDFF" d="M983.906,786.077c1.976,0,4.347-0.434,7.111-1.297v8.406c-2.813,1.26-6.271,1.891-10.37,1.891
		c-4.52,0-7.809-1.143-9.869-3.426c-2.062-2.283-3.093-5.711-3.093-10.279v-19.961h-5.407v-4.775l6.222-3.777l3.259-8.74h7.222
		v8.816h11.592v8.479h-11.591v19.961c0,1.605,0.451,2.789,1.353,3.557C981.234,785.692,982.425,786.077,983.906,786.077z"/>
	<path fill="#80BDFF" d="M1037.607,794.335h-11.297v-24.186c0-5.973-2.222-8.961-6.665-8.961c-3.161,0-5.445,1.074-6.854,3.223
		c-1.406,2.146-2.109,5.629-2.109,10.443v19.479h-11.297v-57.627h11.297v11.74c0,0.914-0.088,3.062-0.26,6.445l-0.259,3.334h0.591
		c2.52-4.051,6.518-6.076,12-6.076c4.864,0,8.556,1.311,11.074,3.928s3.776,6.369,3.776,11.258L1037.607,794.335L1037.607,794.335z"
		/>
	<path fill="#80BDFF" d="M1086.863,773.558c0,6.74-1.778,12.012-5.333,15.812c-3.555,3.803-8.508,5.703-14.851,5.703
		c-3.978,0-7.481-0.869-10.52-2.611c-3.036-1.738-5.371-4.238-7-7.496c-1.63-3.262-2.442-7.062-2.442-11.408
		c0-6.766,1.765-12.023,5.296-15.777c3.528-3.752,8.491-5.629,14.887-5.629c3.976,0,7.479,0.865,10.519,2.592
		c3.037,1.729,5.369,4.209,7,7.443C1086.048,765.423,1086.863,769.212,1086.863,773.558z M1058.236,773.558
		c0,4.1,0.672,7.197,2.019,9.297c1.347,2.098,3.536,3.148,6.572,3.148c3.014,0,5.18-1.045,6.5-3.131s1.982-5.189,1.982-9.312
		c0-4.1-0.668-7.172-1.999-9.223c-1.333-2.049-3.52-3.072-6.558-3.072c-3.014,0-5.185,1.018-6.518,3.055
		S1058.236,769.437,1058.236,773.558z"/>
	<path fill="#80BDFF" d="M1119.307,752.151c1.53,0,2.803,0.111,3.812,0.332l-0.852,10.592c-0.914-0.244-2.025-0.369-3.332-0.369
		c-3.605,0-6.414,0.928-8.427,2.777c-2.014,1.852-3.02,4.443-3.02,7.775v21.074h-11.296v-41.404h8.555l1.668,6.961h0.554
		c1.286-2.32,3.021-4.189,5.207-5.609C1114.362,752.862,1116.738,752.151,1119.307,752.151z"/>
	<path fill="#80BDFF" d="M1159.525,782.04c0,4.246-1.475,7.479-4.425,9.701c-2.949,2.223-7.363,3.334-13.24,3.334
		c-3.013,0-5.58-0.203-7.701-0.609c-2.125-0.41-4.112-1.008-5.963-1.799v-9.332c2.098,0.988,4.462,1.812,7.092,2.48
		c2.629,0.668,4.944,1,6.943,1c4.099,0,6.147-1.188,6.147-3.555c0-0.891-0.271-1.611-0.812-2.166
		c-0.545-0.557-1.482-1.186-2.815-1.891s-3.11-1.523-5.332-2.461c-3.186-1.334-5.523-2.566-7.02-3.705
		c-1.495-1.133-2.581-2.438-3.259-3.904c-0.681-1.471-1.021-3.279-1.021-5.428c0-3.678,1.427-6.523,4.278-8.535
		c2.853-2.014,6.895-3.02,12.131-3.02c4.983,0,9.837,1.086,14.554,3.258l-3.408,8.148c-2.072-0.889-4.012-1.617-5.813-2.188
		c-1.803-0.566-3.642-0.85-5.519-0.85c-3.334,0-5,0.9-5,2.705c0,1.012,0.537,1.887,1.611,2.627c1.074,0.742,3.426,1.842,7.057,3.299
		c3.233,1.309,5.603,2.529,7.108,3.666c1.505,1.135,2.618,2.443,3.334,3.926C1159.168,778.224,1159.525,779.989,1159.525,782.04z"/>
	<path fill="#80BDFF" d="M1206.56,794.335h-11.296v-24.186c0-5.973-2.224-8.961-6.667-8.961c-3.159,0-5.442,1.074-6.852,3.223
		c-1.406,2.146-2.11,5.629-2.11,10.443v19.479h-11.298v-57.627h11.298v11.74c0,0.914-0.087,3.062-0.26,6.445l-0.259,3.334h0.591
		c2.521-4.051,6.52-6.076,12-6.076c4.863,0,8.557,1.311,11.074,3.928c2.519,2.617,3.776,6.369,3.776,11.258L1206.56,794.335
		L1206.56,794.335z"/>
	<path fill="#80BDFF" d="M1217.708,742.228c0-3.68,2.049-5.521,6.149-5.521c4.097,0,6.146,1.844,6.146,5.521
		c0,1.752-0.513,3.115-1.537,4.092c-1.024,0.975-2.561,1.463-4.608,1.463C1219.757,747.782,1217.708,745.931,1217.708,742.228z
		 M1229.485,794.335h-11.297v-41.404h11.297V794.335z"/>
	<path fill="#80BDFF" d="M1264.076,795.075c-4.864,0-8.682-1.766-11.444-5.295h-0.592c0.395,3.457,0.592,5.453,0.592,5.998v16.777
		h-11.295v-59.627h9.183l1.593,5.371h0.521c2.64-4.098,6.554-6.148,11.739-6.148c4.889,0,8.715,1.889,11.481,5.666
		c2.765,3.777,4.146,9.025,4.146,15.74c0,4.42-0.646,8.26-1.944,11.518c-1.294,3.26-3.143,5.742-5.535,7.445
		C1270.124,794.224,1267.31,795.075,1264.076,795.075z M1260.742,761.188c-2.79,0-4.827,0.857-6.11,2.574
		c-1.284,1.717-1.95,4.551-2,8.5v1.221c0,4.445,0.659,7.629,1.981,9.557c1.321,1.926,3.414,2.889,6.275,2.889
		c5.062,0,7.595-4.17,7.595-12.518c0-4.076-0.625-7.131-1.869-9.168C1265.364,762.208,1263.408,761.188,1260.742,761.188z"/>
</g>
<g>
	<path fill="#80BDFF" d="M0,740.19h16.851c7.678,0,13.253,1.094,16.721,3.277c3.469,2.186,5.204,5.66,5.204,10.426
		c0,3.234-0.76,5.889-2.278,7.963c-1.518,2.072-3.537,3.322-6.055,3.74v0.371c3.431,0.764,5.906,2.195,7.425,4.295
		c1.519,2.098,2.278,4.889,2.278,8.369c0,4.938-1.784,8.789-5.352,11.555c-3.568,2.766-8.413,4.146-14.536,4.146H0V740.19z
		 M11.481,761.634h6.667c3.112,0,5.364-0.482,6.759-1.445c1.394-0.961,2.092-2.553,2.092-4.775c0-2.074-0.759-3.562-2.277-4.463
		c-1.519-0.902-3.919-1.354-7.204-1.354h-6.036L11.481,761.634L11.481,761.634z M11.481,770.745v14.109h7.481
		c3.159,0,5.493-0.605,7-1.814c1.506-1.209,2.259-3.061,2.259-5.555c0-4.494-3.209-6.74-9.629-6.74H11.481L11.481,770.745z"/>
	<path fill="#80BDFF" d="M76.366,794.335l-2.185-5.629h-0.296c-1.901,2.396-3.857,4.057-5.87,4.98
		c-2.013,0.926-4.636,1.389-7.869,1.389c-3.977,0-7.105-1.135-9.389-3.406c-2.284-2.271-3.427-5.506-3.427-9.703
		c0-4.395,1.538-7.637,4.612-9.721c3.073-2.088,7.709-3.242,13.906-3.465l7.185-0.223v-1.814c0-4.197-2.147-6.297-6.444-6.297
		c-3.309,0-7.197,1-11.666,3l-3.741-7.629c4.765-2.492,10.049-3.74,15.851-3.74c5.555,0,9.814,1.211,12.777,3.629
		c2.963,2.42,4.445,6.102,4.445,11.037v27.592H76.366L76.366,794.335z M73.033,775.151l-4.37,0.148
		c-3.284,0.098-5.729,0.689-7.333,1.775c-1.604,1.088-2.408,2.742-2.408,4.965c0,3.186,1.828,4.775,5.481,4.775
		c2.617,0,4.709-0.752,6.277-2.26c1.567-1.506,2.352-3.506,2.352-5.998L73.033,775.151L73.033,775.151z"/>
	<path fill="#80BDFF" d="M112.698,795.075c-12.889,0-19.333-7.072-19.333-21.221c0-7.037,1.753-12.412,5.26-16.127
		c3.505-3.717,8.53-5.576,15.074-5.576c4.79,0,9.086,0.939,12.888,2.814l-3.333,8.74c-1.778-0.717-3.433-1.303-4.963-1.762
		c-1.531-0.457-3.062-0.682-4.592-0.682c-5.876,0-8.815,4.17-8.815,12.516c0,8.1,2.938,12.146,8.815,12.146
		c2.172,0,4.185-0.289,6.037-0.869s3.704-1.486,5.555-2.723v9.664c-1.827,1.16-3.673,1.965-5.537,2.408
		C117.888,794.854,115.537,795.075,112.698,795.075z"/>
	<path fill="#80BDFF" d="M145.733,771.817l4.926-6.295l11.591-12.592h12.741l-16.444,17.961l17.443,23.441h-13.037l-11.925-16.775
		l-4.852,3.891v12.887h-11.295v-57.627h11.295v25.703l-0.592,9.406H145.733L145.733,771.817z"/>
	<path fill="#80BDFF" d="M210.803,782.04c0,4.248-1.476,7.48-4.426,9.701c-2.95,2.223-7.365,3.334-13.24,3.334
		c-3.013,0-5.581-0.203-7.703-0.609c-2.124-0.408-4.112-1.008-5.962-1.799v-9.332c2.098,0.988,4.462,1.814,7.091,2.48
		c2.63,0.668,4.944,1,6.944,1c4.099,0,6.148-1.186,6.148-3.555c0-0.889-0.272-1.611-0.815-2.166
		c-0.543-0.557-1.482-1.186-2.814-1.889c-1.332-0.705-3.111-1.525-5.333-2.463c-3.185-1.334-5.523-2.566-7.019-3.705
		c-1.494-1.133-2.58-2.438-3.258-3.904c-0.679-1.471-1.019-3.279-1.019-5.428c0-3.678,1.427-6.521,4.277-8.535
		c2.853-2.012,6.895-3.02,12.13-3.02c4.987,0,9.839,1.088,14.554,3.26l-3.407,8.148c-2.073-0.889-4.012-1.619-5.814-2.188
		c-1.803-0.566-3.643-0.852-5.519-0.852c-3.333,0-5,0.902-5,2.705c0,1.012,0.538,1.889,1.612,2.629
		c1.074,0.742,3.426,1.84,7.055,3.297c3.234,1.311,5.604,2.531,7.11,3.666c1.506,1.137,2.617,2.443,3.334,3.926
		C210.445,778.224,210.803,779.989,210.803,782.04z"/>
	<path fill="#80BDFF" d="M237.06,786.077c1.975,0,4.346-0.434,7.11-1.297v8.406c-2.814,1.26-6.271,1.891-10.37,1.891
		c-4.518,0-7.809-1.141-9.87-3.426c-2.062-2.283-3.092-5.709-3.092-10.277v-19.961h-5.405v-4.777l6.222-3.775l3.259-8.74h7.222
		v8.814h11.591v8.479h-11.591v19.963c0,1.605,0.451,2.789,1.352,3.557C234.387,785.692,235.579,786.077,237.06,786.077z"/>
	<path fill="#80BDFF" d="M290.168,773.56c0,6.738-1.777,12.01-5.333,15.812c-3.556,3.803-8.506,5.703-14.851,5.703
		c-3.975,0-7.48-0.871-10.517-2.611c-3.037-1.74-5.37-4.238-7-7.498c-1.629-3.262-2.444-7.062-2.444-11.406
		c0-6.768,1.765-12.023,5.296-15.777c3.53-3.754,8.493-5.631,14.888-5.631c3.975,0,7.481,0.865,10.519,2.592
		c3.037,1.73,5.37,4.211,6.999,7.445C289.353,765.425,290.168,769.214,290.168,773.56z M261.539,773.56
		c0,4.098,0.673,7.197,2.019,9.295c1.346,2.1,3.537,3.15,6.574,3.15c3.011,0,5.178-1.045,6.499-3.133
		c1.322-2.086,1.982-5.189,1.982-9.312c0-4.098-0.667-7.17-2-9.223c-1.333-2.049-3.518-3.07-6.556-3.07
		c-3.012,0-5.185,1.016-6.517,3.055C262.208,766.358,261.539,769.437,261.539,773.56z"/>
	<path fill="#80BDFF" d="M322.611,752.151c1.53,0,2.801,0.111,3.814,0.334l-0.852,10.592c-0.914-0.246-2.024-0.369-3.333-0.369
		c-3.604,0-6.414,0.926-8.426,2.777c-2.013,1.85-3.019,4.443-3.019,7.775v21.072h-11.295v-41.404h8.555l1.667,6.963h0.556
		c1.283-2.32,3.019-4.191,5.204-5.611C317.667,752.862,320.043,752.151,322.611,752.151z"/>
	<path fill="#80BDFF" d="M328.018,752.931h12.369l7.813,23.293c0.667,2.025,1.124,4.422,1.371,7.186h0.223
		c0.271-2.543,0.803-4.938,1.592-7.186l7.667-23.293h12.11l-17.518,46.697c-1.604,4.322-3.896,7.559-6.871,9.705
		c-2.975,2.146-6.45,3.223-10.425,3.223c-1.951,0-3.864-0.211-5.74-0.629v-8.965c1.357,0.32,2.838,0.482,4.444,0.482
		c2.001,0,3.747-0.611,5.241-1.834c1.493-1.221,2.659-3.068,3.499-5.537l0.667-2.037L328.018,752.931z"/>
</g>
</svg>
