<?xml version="1.0" encoding="utf-8"?>
<!-- Generator: Adobe Illustrator 16.0.0, SVG Export Plug-In . SVG Version: 6.00 Build 0)  -->
<!DOCTYPE svg PUBLIC "-//W3C//DTD SVG 1.1//EN" "http://www.w3.org/Graphics/SVG/1.1/DTD/svg11.dtd">
<svg version="1.1" id="Layer_1" xmlns="http://www.w3.org/2000/svg" xmlns:xlink="http://www.w3.org/1999/xlink" x="0px" y="0px"
	 width="20px" height="40px" viewBox="0 -10 20 40" enable-background="new 0 -10 20 40" xml:space="preserve">
<g>
	<polygon fill="#80BDFF" points="11.333,6.665 11.333,9.998 19.999,9.998 19.999,1.332 16.666,1.332 16.666,6.665 	"/>
	<polygon fill="#80BDFF" points="16.666,-6.667 16.666,-1.334 19.999,-1.334 19.999,-10 11.333,-10 11.333,-6.667 	"/>
	<polygon fill="#80BDFF" points="0.001,-1.334 3.334,-1.334 3.334,-6.667 8.667,-6.667 8.667,-10 0.001,-10 	"/>
	<polygon fill="#80BDFF" points="8.667,9.998 8.667,6.665 3.334,6.665 3.334,1.332 0.001,1.332 0.001,9.998 	"/>
</g>
<g>
	<polygon points="11.333,26.667 11.333,30 19.999,30 19.999,21.334 16.666,21.334 16.666,26.667 	"/>
	<polygon points="16.666,13.335 16.666,18.668 19.999,18.668 19.999,10.002 11.333,10.002 11.333,13.335 	"/>
	<polygon points="0.001,18.668 3.334,18.668 3.334,13.335 8.667,13.335 8.667,10.002 0.001,10.002 	"/>
	<polygon points="8.667,30 8.667,26.667 3.334,26.667 3.334,21.334 0.001,21.334 0.001,30 	"/>
</g>
</svg>
