<?xml version="1.0" encoding="utf-8"?>
<!-- Generator: Adobe Illustrator 16.0.0, SVG Export Plug-In . SVG Version: 6.00 Build 0)  -->
<!DOCTYPE svg PUBLIC "-//W3C//DTD SVG 1.1//EN" "http://www.w3.org/Graphics/SVG/1.1/DTD/svg11.dtd">
<svg version="1.1" xmlns="http://www.w3.org/2000/svg" xmlns:xlink="http://www.w3.org/1999/xlink" x="0px" y="0px" width="1280px"
	 height="720px" viewBox="0 0 1280 720" enable-background="new 0 0 1280 720" xml:space="preserve">
<g id="Layer_2">
	<g>
		<polygon fill="#80BDFF" points="128.826,29.358 128.826,0 0,0 0,128.825 29.358,128.825 29.358,29.358 		"/>
	</g>
	<g>
		<polygon fill="#80BDFF" points="1250.642,128.825 1280,128.825 1280,0 1151.174,0 1151.174,29.358 1250.642,29.358 		"/>
	</g>
	<g>
		<polygon fill="#80BDFF" points="1151.174,690.642 1151.174,720 1280,720 1280,591.174 1250.642,591.174 1250.642,690.642 		"/>
	</g>
	<g>
		<polygon fill="#80BDFF" points="29.358,591.174 0,591.174 0,720 128.826,720 128.826,690.642 29.358,690.642 		"/>
	</g>
</g>
<g id="Layer_1">
	<g enable-background="new    ">
		<path d="M99.252,120.25v20.777h-11.48V86.883h15.777c7.356,0,12.801,1.339,16.333,4.018c3.529,2.68,5.296,6.747,5.296,12.204
			c0,3.184-0.876,6.018-2.63,8.499c-1.753,2.482-4.235,4.426-7.444,5.833l15.926,23.591h-12.74l-12.926-20.777H99.252z
			 M99.252,110.918h3.705c3.628,0,6.308-0.604,8.036-1.814c1.728-1.209,2.593-3.111,2.593-5.704c0-2.567-0.883-4.394-2.648-5.48
			c-1.766-1.087-4.5-1.629-8.204-1.629h-3.48v14.628H99.252z"/>
		<path d="M155.693,141.769c-6.667,0-11.875-1.84-15.627-5.519c-3.754-3.679-5.63-8.888-5.63-15.628
			c0-6.938,1.735-12.301,5.204-16.092c3.469-3.79,8.265-5.685,14.388-5.685c5.851,0,10.407,1.667,13.666,5
			c3.259,3.333,4.889,7.938,4.889,13.813v5.481H145.88c0.123,3.209,1.074,5.716,2.852,7.519c1.777,1.802,4.271,2.703,7.48,2.703
			c2.493,0,4.852-0.259,7.074-0.778c2.222-0.519,4.542-1.346,6.962-2.481v8.74c-1.975,0.987-4.087,1.722-6.333,2.204
			C161.668,141.527,158.927,141.769,155.693,141.769z M154.101,106.882c-2.395,0-4.271,0.758-5.629,2.277
			c-1.359,1.519-2.136,3.673-2.333,6.463h15.851c-0.049-2.791-0.778-4.944-2.185-6.463
			C158.396,107.64,156.496,106.882,154.101,106.882z"/>
		<path d="M193.062,141.027h-11.295V83.401h11.295V141.027z"/>
		<path d="M231.206,141.027l-2.184-5.63h-0.296c-1.901,2.395-3.858,4.056-5.87,4.981c-2.012,0.926-4.636,1.389-7.87,1.389
			c-3.976,0-7.105-1.136-9.389-3.407s-3.426-5.504-3.426-9.703c0-4.394,1.538-7.635,4.611-9.722
			c3.073-2.086,7.709-3.241,13.906-3.462l7.185-0.223v-1.814c0-4.198-2.148-6.297-6.444-6.297c-3.309,0-7.197,1-11.666,3
			l-3.74-7.628c4.765-2.493,10.049-3.741,15.851-3.741c5.555,0,9.814,1.21,12.777,3.629c2.963,2.42,4.445,6.099,4.445,11.037v27.591
			H231.206z M227.874,121.843l-4.371,0.148c-3.283,0.1-5.728,0.692-7.333,1.778c-1.605,1.086-2.408,2.741-2.408,4.962
			c0,3.184,1.828,4.777,5.481,4.777c2.616,0,4.709-0.753,6.277-2.259c1.567-1.506,2.352-3.506,2.352-5.999L227.874,121.843
			L227.874,121.843z"/>
		<path d="M268.167,132.769c1.976,0,4.346-0.432,7.11-1.297v8.407c-2.813,1.259-6.271,1.889-10.37,1.889
			c-4.518,0-7.809-1.142-9.87-3.426c-2.062-2.284-3.093-5.709-3.093-10.277v-19.962h-5.407v-4.777l6.221-3.777l3.26-8.74h7.221
			v8.814h11.592v8.481H263.24v19.962c0,1.605,0.451,2.79,1.353,3.554C265.496,132.386,266.687,132.769,268.167,132.769z"/>
		<path d="M302.388,141.769c-6.667,0-11.876-1.84-15.628-5.519c-3.753-3.679-5.629-8.888-5.629-15.628
			c0-6.938,1.735-12.301,5.204-16.092c3.469-3.79,8.265-5.685,14.388-5.685c5.851,0,10.406,1.667,13.665,5
			c3.26,3.333,4.889,7.938,4.889,13.813v5.481h-26.702c0.123,3.209,1.074,5.716,2.852,7.519c1.777,1.802,4.271,2.703,7.48,2.703
			c2.493,0,4.851-0.259,7.074-0.778c2.222-0.519,4.542-1.346,6.962-2.481v8.74c-1.976,0.987-4.086,1.722-6.333,2.204
			S305.622,141.769,302.388,141.769z M300.795,106.882c-2.395,0-4.271,0.758-5.63,2.277c-1.358,1.519-2.135,3.673-2.333,6.463h15.85
			c-0.049-2.791-0.778-4.944-2.184-6.463C305.091,107.64,303.19,106.882,300.795,106.882z"/>
		<path d="M341.572,141.769c-4.864,0-8.686-1.889-11.462-5.666c-2.778-3.777-4.167-9.012-4.167-15.703
			c0-6.791,1.414-12.079,4.241-15.87c2.827-3.79,6.722-5.685,11.685-5.685c5.209,0,9.186,2.025,11.925,6.074h0.37
			c-0.568-3.086-0.852-5.839-0.852-8.259v-13.26h11.333v57.626h-8.667l-2.186-5.371h-0.482
			C350.742,139.731,346.83,141.769,341.572,141.769z M345.534,132.769c2.888,0,5.005-0.839,6.351-2.518
			c1.345-1.678,2.079-4.53,2.203-8.555v-1.222c0-4.445-0.685-7.629-2.056-9.556c-1.371-1.927-3.6-2.889-6.686-2.889
			c-2.518,0-4.474,1.068-5.869,3.204c-1.395,2.135-2.093,5.241-2.093,9.315s0.705,7.129,2.111,9.166
			C340.904,131.751,342.917,132.769,345.534,132.769z"/>
		<path d="M108.029,232.043H83.401v-6.518l6.593-3.037v-35.035l-6.593-3.036v-6.519h24.628v6.519l-6.592,3.037v35.035l6.592,3.037
			V232.043z"/>
		<path d="M153.471,232.043h-11.296V207.86c0-2.987-0.5-5.229-1.5-6.721c-1-1.494-2.573-2.241-4.722-2.241
			c-2.888,0-4.987,1.062-6.295,3.184c-1.31,2.125-1.963,5.617-1.963,10.481v19.48h-11.295v-41.404h8.628l1.518,5.295h0.63
			c1.11-1.901,2.716-3.389,4.815-4.463c2.097-1.074,4.505-1.612,7.222-1.612c6.196,0,10.394,2.025,12.592,6.074h1
			c1.11-1.926,2.746-3.42,4.907-4.481c2.159-1.061,4.598-1.593,7.313-1.593c4.691,0,8.24,1.204,10.647,3.611
			c2.408,2.408,3.611,6.266,3.611,11.574v26.998h-11.333V207.86c0-2.987-0.5-5.229-1.5-6.721c-1-1.494-2.574-2.241-4.722-2.241
			c-2.766,0-4.833,0.987-6.204,2.962c-1.371,1.976-2.056,5.111-2.056,9.407v20.776H153.471z"/>
		<path d="M217.171,232.043l-2.185-5.629h-0.296c-1.901,2.395-3.858,4.056-5.871,4.981c-2.012,0.925-4.635,1.389-7.869,1.389
			c-3.976,0-7.105-1.136-9.389-3.407s-3.426-5.505-3.426-9.703c0-4.394,1.537-7.635,4.611-9.722
			c3.074-2.086,7.709-3.241,13.907-3.462l7.184-0.223v-1.814c0-4.198-2.148-6.297-6.444-6.297c-3.31,0-7.197,1-11.666,3
			l-3.741-7.629c4.765-2.494,10.049-3.741,15.851-3.741c5.555,0,9.815,1.209,12.778,3.63c2.963,2.419,4.445,6.099,4.445,11.036
			v27.59H217.171z M213.838,212.86l-4.37,0.148c-3.284,0.099-5.729,0.692-7.333,1.778c-1.605,1.086-2.408,2.741-2.408,4.962
			c0,3.184,1.827,4.777,5.481,4.777c2.617,0,4.709-0.753,6.277-2.259c1.568-1.506,2.352-3.505,2.352-6L213.838,212.86
			L213.838,212.86z"/>
		<path d="M272.872,232.118c0,5.949-1.735,10.462-5.204,13.537c-3.469,3.073-8.635,4.611-15.5,4.611
			c-6.049,0-11.208-0.815-15.48-2.444v-9.037c5.011,2.123,10.394,3.184,16.147,3.184c5.802,0,8.703-3.136,8.703-9.406v-0.814
			l0.333-5.075h-0.333c-2.643,4.075-6.556,6.111-11.74,6.111c-4.963,0-8.808-1.914-11.535-5.74
			c-2.729-3.827-4.094-9.037-4.094-15.628c0-6.791,1.414-12.08,4.241-15.871c2.827-3.79,6.722-5.685,11.685-5.685
			c5.085,0,9.085,2.025,11.999,6.074h0.295l0.926-5.296h9.555v41.479H272.872z M253.835,223.934c3.037,0,5.208-0.872,6.518-2.612
			c1.308-1.741,1.963-4.562,1.963-8.462v-1.37c0-4.42-0.686-7.599-2.056-9.537c-1.37-1.938-3.574-2.907-6.611-2.907
			c-5.309,0-7.962,4.173-7.962,12.518c0,4.148,0.66,7.246,1.982,9.296C248.989,222.909,251.045,223.934,253.835,223.934z"/>
		<path d="M303.425,232.785c-6.667,0-11.876-1.839-15.628-5.519c-3.754-3.679-5.63-8.888-5.63-15.628
			c0-6.938,1.735-12.302,5.204-16.091c3.469-3.79,8.265-5.685,14.388-5.685c5.852,0,10.407,1.667,13.666,5
			c3.259,3.333,4.889,7.938,4.889,13.814v5.481h-26.702c0.124,3.209,1.074,5.716,2.852,7.518c1.778,1.802,4.271,2.704,7.481,2.704
			c2.494,0,4.852-0.26,7.074-0.778c2.222-0.52,4.543-1.346,6.963-2.481v8.739c-1.976,0.987-4.087,1.722-6.333,2.203
			C309.399,232.543,306.659,232.785,303.425,232.785z M301.833,197.898c-2.395,0-4.271,0.759-5.629,2.278
			c-1.358,1.518-2.136,3.672-2.333,6.462h15.851c-0.049-2.79-0.779-4.944-2.185-6.462
			C306.129,198.657,304.228,197.898,301.833,197.898z"/>
		<path d="M352.607,189.861c1.53,0,2.802,0.112,3.814,0.334l-0.851,10.592c-0.915-0.247-2.025-0.37-3.333-0.37
			c-3.604,0-6.414,0.925-8.426,2.777c-2.013,1.852-3.018,4.445-3.018,7.778v21.072h-11.296v-41.404h8.556l1.667,6.963h0.555
			c1.283-2.321,3.019-4.19,5.204-5.611C347.663,190.572,350.039,189.861,352.607,189.861z"/>
		<path d="M358.014,190.639h12.369l7.815,23.295c0.667,2.026,1.123,4.42,1.371,7.186h0.222c0.27-2.543,0.802-4.938,1.591-7.186
			l7.667-23.295h12.111l-17.518,46.701c-1.605,4.32-3.895,7.556-6.87,9.703c-2.975,2.148-6.451,3.222-10.425,3.222
			c-1.951,0-3.864-0.21-5.741-0.629v-8.963c1.358,0.321,2.839,0.481,4.444,0.481c2.001,0,3.747-0.611,5.241-1.833
			c1.493-1.222,2.66-3.068,3.499-5.537l0.668-2.037L358.014,190.639z"/>
	</g>
	<g enable-background="new    ">
		<path d="M1005.721,141.027V86.883h11.482v44.664h21.962v9.481H1005.721z"/>
		<path d="M1047.199,88.919c0-3.679,2.049-5.518,6.148-5.518c4.098,0,6.147,1.839,6.147,5.518c0,1.754-0.511,3.118-1.536,4.092
			c-1.024,0.976-2.562,1.463-4.611,1.463C1049.248,94.474,1047.199,92.623,1047.199,88.919z M1058.977,141.027h-11.295V99.623
			h11.295V141.027z"/>
		<path d="M1109.048,141.027h-11.296v-24.184c0-2.986-0.53-5.228-1.592-6.722c-1.062-1.492-2.752-2.24-5.074-2.24
			c-3.159,0-5.444,1.055-6.852,3.167s-2.111,5.61-2.111,10.5v19.48h-11.296V99.623h8.629l1.519,5.296h0.632
			c1.258-2.001,2.991-3.513,5.202-4.537c2.21-1.024,4.722-1.537,7.537-1.537c4.813,0,8.468,1.303,10.963,3.907
			c2.493,2.605,3.739,6.363,3.739,11.277V141.027L1109.048,141.027z"/>
		<path d="M1131.527,118.511l4.928-6.297l11.592-12.593h12.739l-16.443,17.962l17.444,23.444h-13.037l-11.925-16.776l-4.852,3.889
			v12.888h-11.297V83.401h11.297v25.702l-0.593,9.407H1131.527z"/>
		<path d="M1196.599,128.732c0,4.247-1.476,7.481-4.426,9.703s-7.363,3.333-13.239,3.333c-3.014,0-5.58-0.204-7.704-0.61
			c-2.123-0.408-4.11-1.006-5.962-1.797v-9.333c2.099,0.987,4.464,1.814,7.091,2.482c2.632,0.666,4.946,1,6.945,1
			c4.1,0,6.148-1.185,6.148-3.555c0-0.889-0.271-1.611-0.814-2.167c-0.542-0.555-1.481-1.185-2.814-1.889s-3.111-1.524-5.334-2.462
			c-3.184-1.334-5.523-2.567-7.019-3.704c-1.493-1.135-2.579-2.438-3.258-3.908c-0.679-1.469-1.019-3.277-1.019-5.426
			c0-3.678,1.426-6.523,4.276-8.536c2.854-2.012,6.896-3.018,12.131-3.018c4.987,0,9.838,1.087,14.555,3.258l-3.408,8.148
			c-2.072-0.889-4.014-1.617-5.815-2.185c-1.802-0.567-3.642-0.852-5.518-0.852c-3.332,0-4.999,0.901-4.999,2.704
			c0,1.013,0.538,1.889,1.611,2.629c1.073,0.741,3.426,1.84,7.055,3.296c3.234,1.308,5.604,2.531,7.112,3.667
			c1.504,1.136,2.616,2.444,3.332,3.926C1196.24,124.917,1196.599,126.682,1196.599,128.732z"/>
	</g>
	<g enable-background="new    ">
		<path d="M814.917,634.228l-3.926-12.888h-19.739l-3.926,12.888h-12.369l19.108-54.367h14.037l19.185,54.367H814.917z
			 M808.251,611.71c-3.628-11.678-5.673-18.281-6.129-19.812c-0.457-1.531-0.783-2.741-0.981-3.63
			c-0.813,3.16-3.148,10.975-6.998,23.442H808.251z"/>
		<path d="M862.544,634.228l-1.519-5.296h-0.592c-1.21,1.925-2.925,3.416-5.147,4.463c-2.223,1.05-4.753,1.575-7.593,1.575
			c-4.864,0-8.531-1.302-10.999-3.908c-2.469-2.604-3.705-6.351-3.705-11.239v-26.998h11.298v24.185c0,2.987,0.53,5.229,1.59,6.722
			c1.062,1.494,2.753,2.24,5.076,2.24c3.159,0,5.443-1.056,6.852-3.164c1.407-2.113,2.109-5.611,2.109-10.501v-19.479h11.298v41.404
			h-8.668V634.228z"/>
		<path d="M900.505,625.97c1.976,0,4.346-0.433,7.111-1.297v8.406c-2.813,1.261-6.271,1.891-10.37,1.891
			c-4.519,0-7.809-1.142-9.869-3.426c-2.063-2.283-3.093-5.71-3.093-10.278v-19.961h-5.407v-4.777l6.222-3.776l3.259-8.74h7.221
			v8.815h11.592v8.479h-11.591v19.961c0,1.606,0.451,2.79,1.353,3.557C897.833,625.585,899.023,625.97,900.505,625.97z"/>
		<path d="M954.206,634.228h-11.297v-24.185c0-5.974-2.221-8.961-6.665-8.961c-3.161,0-5.445,1.073-6.853,3.223
			c-1.407,2.146-2.11,5.628-2.11,10.442v19.48h-11.297v-57.627h11.297v11.74c0,0.914-0.088,3.062-0.26,6.444l-0.258,3.334h0.591
			c2.519-4.05,6.517-6.075,12-6.075c4.864,0,8.555,1.31,11.074,3.927c2.518,2.618,3.776,6.37,3.776,11.259L954.206,634.228
			L954.206,634.228z"/>
		<path d="M1003.462,613.451c0,6.739-1.778,12.011-5.333,15.813s-8.508,5.703-14.851,5.703c-3.977,0-7.481-0.869-10.519-2.611
			c-3.036-1.739-5.371-4.239-7-7.498c-1.63-3.261-2.443-7.062-2.443-11.407c0-6.766,1.765-12.023,5.296-15.777
			c3.529-3.753,8.492-5.63,14.887-5.63c3.976,0,7.48,0.865,10.518,2.592c3.038,1.729,5.37,4.21,7,7.444
			C1002.647,605.316,1003.462,609.105,1003.462,613.451z M974.835,613.451c0,4.099,0.672,7.197,2.018,9.296
			c1.347,2.099,3.537,3.149,6.573,3.149c3.013,0,5.18-1.044,6.5-3.131c1.32-2.085,1.982-5.19,1.982-9.313
			c0-4.098-0.668-7.171-1.999-9.222c-1.333-2.049-3.519-3.072-6.558-3.072c-3.013,0-5.184,1.017-6.517,3.055
			C975.501,606.25,974.835,609.329,974.835,613.451z"/>
		<path d="M1035.905,592.044c1.53,0,2.803,0.111,3.813,0.333l-0.852,10.592c-0.914-0.245-2.025-0.369-3.332-0.369
			c-3.605,0-6.414,0.926-8.427,2.777c-2.013,1.851-3.019,4.443-3.019,7.775v21.074h-11.296v-41.405h8.555l1.668,6.962h0.554
			c1.286-2.32,3.021-4.19,5.206-5.609C1030.961,592.756,1033.337,592.044,1035.905,592.044z"/>
		<path d="M1076.124,621.933c0,4.247-1.475,7.479-4.425,9.701c-2.949,2.223-7.363,3.334-13.24,3.334
			c-3.013,0-5.58-0.203-7.701-0.609c-2.125-0.41-4.112-1.008-5.963-1.798v-9.333c2.098,0.988,4.462,1.813,7.092,2.48
			c2.629,0.668,4.944,1,6.943,1c4.099,0,6.148-1.186,6.148-3.555c0-0.889-0.272-1.611-0.813-2.166
			c-0.545-0.556-1.482-1.185-2.815-1.889c-1.333-0.705-3.111-1.525-5.332-2.462c-3.186-1.334-5.524-2.567-7.02-3.704
			c-1.495-1.134-2.581-2.438-3.259-3.906c-0.68-1.469-1.02-3.278-1.02-5.427c0-3.678,1.427-6.523,4.278-8.535
			c2.853-2.013,6.895-3.02,12.131-3.02c4.984,0,9.837,1.087,14.554,3.259l-3.408,8.148c-2.073-0.889-4.012-1.617-5.814-2.187
			c-1.803-0.567-3.642-0.851-5.518-0.851c-3.335,0-5,0.901-5,2.705c0,1.012,0.537,1.888,1.611,2.628
			c1.074,0.742,3.426,1.841,7.056,3.298c3.234,1.309,5.603,2.53,7.109,3.666c1.505,1.136,2.618,2.443,3.334,3.926
			C1075.767,618.117,1076.124,619.882,1076.124,621.933z"/>
		<path d="M1123.158,634.228h-11.296v-24.185c0-5.974-2.223-8.961-6.667-8.961c-3.159,0-5.442,1.073-6.851,3.223
			c-1.407,2.146-2.111,5.628-2.111,10.442v19.48h-11.298v-57.627h11.298v11.74c0,0.914-0.087,3.062-0.259,6.444l-0.259,3.334h0.591
			c2.52-4.05,6.519-6.075,12-6.075c4.863,0,8.556,1.31,11.074,3.927c2.519,2.618,3.776,6.37,3.776,11.259L1123.158,634.228
			L1123.158,634.228z"/>
		<path d="M1134.307,582.12c0-3.68,2.049-5.52,6.149-5.52c4.097,0,6.146,1.842,6.146,5.52c0,1.753-0.513,3.116-1.538,4.092
			c-1.024,0.976-2.56,1.463-4.608,1.463C1136.355,587.675,1134.307,585.823,1134.307,582.12z M1146.084,634.228h-11.297v-41.405
			h11.297V634.228z"/>
		<path d="M1180.675,634.968c-4.865,0-8.682-1.765-11.445-5.295h-0.591c0.394,3.457,0.591,5.454,0.591,5.999v16.777h-11.295v-59.627
			h9.183l1.593,5.37h0.52c2.64-4.097,6.554-6.148,11.74-6.148c4.888,0,8.715,1.89,11.481,5.667c2.765,3.777,4.147,9.024,4.147,15.74
			c0,4.419-0.647,8.259-1.945,11.517c-1.294,3.26-3.142,5.742-5.535,7.445C1186.723,634.116,1183.908,634.968,1180.675,634.968z
			 M1177.341,601.082c-2.79,0-4.827,0.857-6.111,2.573c-1.284,1.718-1.95,4.551-2,8.5v1.221c0,4.445,0.66,7.63,1.982,9.557
			c1.321,1.926,3.414,2.888,6.275,2.888c5.063,0,7.595-4.17,7.595-12.516c0-4.076-0.625-7.131-1.869-9.168
			C1181.963,602.101,1180.007,601.082,1177.341,601.082z"/>
	</g>
	<g enable-background="new    ">
		<path d="M83.401,580.084h16.851c7.678,0,13.253,1.093,16.721,3.276c3.469,2.186,5.204,5.662,5.204,10.427
			c0,3.234-0.76,5.889-2.278,7.963c-1.518,2.072-3.537,3.321-6.055,3.739v0.371c3.431,0.764,5.906,2.197,7.425,4.295
			c1.519,2.099,2.278,4.889,2.278,8.369c0,4.938-1.784,8.79-5.352,11.556s-8.413,4.147-14.536,4.147H83.401V580.084z
			 M94.882,601.526h6.667c3.112,0,5.364-0.481,6.759-1.444c1.394-0.962,2.092-2.554,2.092-4.776c0-2.074-0.759-3.562-2.277-4.463
			c-1.519-0.902-3.919-1.354-7.204-1.354h-6.036v12.037H94.882z M94.882,610.638v14.109h7.481c3.159,0,5.493-0.604,7-1.813
			c1.506-1.209,2.259-3.062,2.259-5.556c0-4.493-3.209-6.739-9.629-6.739L94.882,610.638L94.882,610.638z"/>
		<path d="M159.767,634.228l-2.185-5.629h-0.296c-1.901,2.396-3.857,4.057-5.87,4.981c-2.013,0.926-4.636,1.389-7.869,1.389
			c-3.977,0-7.105-1.135-9.389-3.407c-2.284-2.271-3.427-5.506-3.427-9.703c0-4.394,1.538-7.636,4.612-9.721
			c3.073-2.087,7.709-3.241,13.906-3.465l7.185-0.223v-1.813c0-4.197-2.147-6.297-6.444-6.297c-3.309,0-7.197,0.999-11.666,3
			l-3.741-7.629c4.765-2.493,10.049-3.741,15.851-3.741c5.555,0,9.814,1.212,12.777,3.63c2.963,2.42,4.445,6.1,4.445,11.037v27.591
			H159.767L159.767,634.228z M156.434,615.044l-4.37,0.148c-3.284,0.099-5.729,0.69-7.333,1.777s-2.408,2.741-2.408,4.964
			c0,3.185,1.828,4.775,5.481,4.775c2.617,0,4.709-0.752,6.277-2.259c1.567-1.506,2.352-3.506,2.352-5.999L156.434,615.044
			L156.434,615.044z"/>
		<path d="M196.099,634.969c-12.889,0-19.333-7.072-19.333-21.221c0-7.037,1.753-12.412,5.26-16.128
			c3.505-3.717,8.53-5.575,15.074-5.575c4.79,0,9.086,0.938,12.888,2.814l-3.333,8.74c-1.778-0.717-3.433-1.302-4.963-1.761
			c-1.531-0.457-3.062-0.683-4.592-0.683c-5.876,0-8.815,4.171-8.815,12.517c0,8.099,2.938,12.146,8.815,12.146
			c2.172,0,4.185-0.289,6.037-0.87c1.852-0.579,3.704-1.486,5.555-2.722v9.665c-1.827,1.16-3.673,1.963-5.537,2.408
			C201.289,634.747,198.938,634.969,196.099,634.969z"/>
		<path d="M229.134,611.71l4.926-6.294l11.591-12.593h12.741l-16.444,17.962l17.443,23.442h-13.037l-11.925-16.776l-4.852,3.89
			v12.887h-11.295v-57.627h11.295v25.703l-0.592,9.406H229.134L229.134,611.71z"/>
		<path d="M294.204,621.934c0,4.247-1.476,7.479-4.426,9.701s-7.365,3.334-13.24,3.334c-3.013,0-5.581-0.204-7.703-0.61
			c-2.124-0.409-4.112-1.007-5.962-1.798v-9.333c2.098,0.988,4.462,1.814,7.091,2.481c2.63,0.667,4.944,1,6.944,1
			c4.099,0,6.148-1.186,6.148-3.555c0-0.889-0.272-1.611-0.815-2.166c-0.543-0.556-1.482-1.185-2.814-1.889
			c-1.332-0.705-3.111-1.525-5.333-2.463c-3.185-1.333-5.524-2.566-7.019-3.704c-1.494-1.134-2.58-2.438-3.258-3.905
			c-0.679-1.47-1.019-3.279-1.019-5.428c0-3.678,1.427-6.522,4.277-8.535c2.853-2.012,6.895-3.019,12.13-3.019
			c4.987,0,9.839,1.087,14.554,3.259l-3.407,8.148c-2.073-0.889-4.012-1.618-5.814-2.187c-1.803-0.567-3.643-0.851-5.519-0.851
			c-3.333,0-5,0.901-5,2.705c0,1.012,0.538,1.888,1.612,2.628c1.074,0.742,3.426,1.841,7.055,3.297
			c3.234,1.31,5.604,2.531,7.11,3.667s2.617,2.443,3.334,3.926C293.846,618.117,294.204,619.883,294.204,621.934z"/>
		<path d="M320.461,625.97c1.975,0,4.346-0.433,7.11-1.296v8.406c-2.814,1.26-6.271,1.891-10.37,1.891
			c-4.518,0-7.809-1.142-9.87-3.426c-2.062-2.283-3.092-5.71-3.092-10.278v-19.961h-5.405v-4.777l6.222-3.776l3.259-8.74h7.222
			v8.815h11.591v8.479h-11.591v19.962c0,1.605,0.451,2.79,1.352,3.557C317.788,625.585,318.98,625.97,320.461,625.97z"/>
		<path d="M373.569,613.452c0,6.739-1.777,12.011-5.333,15.813s-8.506,5.703-14.851,5.703c-3.975,0-7.48-0.87-10.517-2.611
			c-3.037-1.74-5.37-4.239-7-7.499c-1.629-3.261-2.444-7.062-2.444-11.406c0-6.766,1.765-12.023,5.296-15.777
			c3.53-3.753,8.493-5.63,14.888-5.63c3.975,0,7.481,0.864,10.519,2.592c3.037,1.729,5.37,4.21,6.999,7.444
			C372.754,605.317,373.569,609.106,373.569,613.452z M344.94,613.452c0,4.099,0.673,7.197,2.019,9.295
			c1.346,2.1,3.537,3.15,6.574,3.15c3.011,0,5.178-1.044,6.499-3.131c1.322-2.086,1.982-5.19,1.982-9.313
			c0-4.098-0.667-7.171-2-9.223c-1.333-2.048-3.518-3.071-6.556-3.071c-3.012,0-5.185,1.017-6.517,3.055
			C345.609,606.251,344.94,609.329,344.94,613.452z"/>
		<path d="M406.012,592.045c1.53,0,2.801,0.11,3.814,0.333l-0.851,10.592c-0.914-0.245-2.025-0.369-3.333-0.369
			c-3.604,0-6.414,0.925-8.426,2.777c-2.013,1.851-3.019,4.443-3.019,7.775v21.074h-11.295v-41.405h8.555l1.667,6.962h0.556
			c1.283-2.32,3.018-4.19,5.204-5.61C401.068,592.756,403.444,592.045,406.012,592.045z"/>
		<path d="M411.419,592.823h12.369l7.814,23.294c0.667,2.026,1.124,4.422,1.371,7.185h0.222c0.271-2.543,0.803-4.938,1.592-7.185
			l7.667-23.294h12.111l-17.518,46.699c-1.605,4.322-3.896,7.557-6.871,9.704c-2.975,2.147-6.45,3.223-10.425,3.223
			c-1.951,0-3.864-0.211-5.74-0.63v-8.964c1.357,0.321,2.838,0.483,4.444,0.483c2.001,0,3.747-0.612,5.241-1.835
			c1.493-1.221,2.66-3.068,3.499-5.536l0.667-2.037L411.419,592.823z"/>
	</g>
</g>
</svg>
