<?xml version="1.0" encoding="utf-8"?>
<!-- Generator: Adobe Illustrator 16.0.0, SVG Export Plug-In . SVG Version: 6.00 Build 0)  -->
<!DOCTYPE svg PUBLIC "-//W3C//DTD SVG 1.1//EN" "http://www.w3.org/Graphics/SVG/1.1/DTD/svg11.dtd">
<svg version="1.1" id="Layer_1" xmlns="http://www.w3.org/2000/svg" xmlns:xlink="http://www.w3.org/1999/xlink" x="0px" y="0px"
	 width="1280px" height="812.5px" viewBox="1593.159 1036 1280 812.5" enable-background="new 1593.159 1036 1280 812.5"
	 xml:space="preserve">
<g>
	<polygon points="437.148,311.249 477.169,311.249 477.169,243.418 545,243.418 545,203.398 437.148,203.398 	"/>
	<polygon points="477.169,501.25 437.148,501.25 437.148,609.102 545,609.102 545,569.082 477.169,569.082 	"/>
	<polygon points="802.832,569.082 735,569.082 735,609.102 842.852,609.102 842.852,501.252 802.832,501.252 	"/>
	<polygon points="735.002,203.398 735.002,243.419 802.832,243.419 802.832,311.25 842.852,311.25 842.852,203.398 	"/>
</g>
<text transform="matrix(1 0 0 1 0 61.6992)" stroke="#000000" stroke-miterlimit="10" font-family="'NotoSans-Bold'" font-size="72">Related Imagery</text>
<text transform="matrix(1 0 0 1 0 784.1641)" stroke="#000000" stroke-miterlimit="10" font-family="'NotoSans-Bold'" font-size="72">Backstory</text>
<text transform="matrix(1 0 0 1 1089.5938 61.6992)" stroke="#000000" stroke-miterlimit="10" font-family="'NotoSans-Bold'" font-size="72">Links</text>
<text transform="matrix(1 0 0 1 876.5117 784.1641)" stroke="#000000" stroke-miterlimit="10" font-family="'NotoSans-Bold'" font-size="72">Authorship</text>
<polygon fill="#80BDFF" points="1593.159,225.107 1676.691,225.107 1676.691,83.531 1818.268,83.531 1818.268,0 1593.159,0 "/>
<polygon points="1676.691,587.392 1593.159,587.392 1593.159,812.5 1818.268,812.5 1818.268,728.971 1676.691,728.971 "/>
<polygon points="2789.63,728.971 2648.051,728.971 2648.051,812.5 2873.159,812.5 2873.159,587.396 2789.63,587.396 "/>
<polygon points="2648.055,0 2648.055,83.531 2789.63,83.531 2789.63,225.111 2873.159,225.111 2873.159,0 "/>
<text transform="matrix(1 0 0 1 1662.168 446.3125)" fill="#80BDFF" font-family="'NotoSans-Bold'" font-size="139.2399">Related Imagery</text>
<polygon points="1593.159,1261.107 1676.691,1261.107 1676.691,1119.531 1818.268,1119.531 1818.268,1036 1593.159,1036 "/>
<polygon fill="#F4F7FE" points="1676.691,1623.392 1593.159,1623.392 1593.159,1848.5 1818.268,1848.5 1818.268,1764.971 
	1676.691,1764.971 "/>
<polygon fill="#F4F7FE" points="2789.63,1764.971 2648.051,1764.971 2648.051,1848.5 2873.159,1848.5 2873.159,1623.396 
	2789.63,1623.396 "/>
<polygon fill="#F4F7FE" points="2648.055,1036 2648.055,1119.531 2789.63,1119.531 2789.63,1261.111 2873.159,1261.111 
	2873.159,1036 "/>
<text transform="matrix(1 0 0 1 1662.168 1482.3125)" font-family="'NotoSans-Bold'" font-size="139.2399">Related Imagery</text>
</svg>
