<?xml version="1.0" encoding="utf-8"?>
<!-- Generator: Adobe Illustrator 16.0.0, SVG Export Plug-In . SVG Version: 6.00 Build 0)  -->
<!DOCTYPE svg PUBLIC "-//W3C//DTD SVG 1.1//EN" "http://www.w3.org/Graphics/SVG/1.1/DTD/svg11.dtd">
<svg version="1.1" id="Layer_1" xmlns="http://www.w3.org/2000/svg" xmlns:xlink="http://www.w3.org/1999/xlink" x="0px" y="0px"
	 width="422.119px" height="42.849px" viewBox="-353.757 -10.833 422.119 42.849"
	 enable-background="new -353.757 -10.833 422.119 42.849" xml:space="preserve">
<g>
	<polygon points="52.614,22.703 52.614,28.76 68.361,28.76 68.361,13.013 62.305,13.013 62.305,22.703 	"/>
	<polygon points="62.305,-1.521 62.305,8.169 68.361,8.169 68.361,-7.578 52.614,-7.578 52.614,-1.521 	"/>
	<polygon points="32.023,8.169 38.08,8.169 38.08,-1.521 47.771,-1.521 47.771,-7.578 32.023,-7.578 	"/>
	<polygon points="47.771,28.76 47.771,22.703 38.08,22.703 38.08,13.013 32.023,13.013 32.023,28.76 	"/>
</g>
<g>
	<path d="M-348.282,21.141h-5.475V-5.104h15.042v4.561h-9.567v6.767h8.903v4.541h-8.903V21.141z"/>
	<path d="M-315.774,11.07c0,3.268-0.861,5.822-2.585,7.665c-1.723,1.843-4.123,2.764-7.198,2.764c-1.926,0-3.626-0.421-5.098-1.265
		c-1.472-0.844-2.603-2.056-3.393-3.636c-0.79-1.579-1.185-3.422-1.185-5.528c0-3.279,0.855-5.828,2.567-7.646
		c1.711-1.819,4.117-2.729,7.216-2.729c1.927,0,3.626,0.419,5.098,1.256c1.472,0.838,2.603,2.041,3.393,3.608
		C-316.169,7.127-315.774,8.964-315.774,11.07z M-329.649,11.07c0,1.986,0.326,3.488,0.978,4.506
		c0.652,1.018,1.714,1.526,3.186,1.526c1.46,0,2.51-0.506,3.151-1.518c0.64-1.012,0.96-2.516,0.96-4.515
		c0-1.986-0.323-3.477-0.969-4.47c-0.646-0.993-1.705-1.489-3.177-1.489c-1.46,0-2.513,0.493-3.159,1.48
		C-329.327,7.579-329.649,9.072-329.649,11.07z"/>
	<path d="M-297.033,21.141l-0.736-2.567h-0.288c-0.586,0.934-1.417,1.655-2.495,2.163c-1.078,0.509-2.304,0.763-3.68,0.763
		c-2.357,0-4.135-0.63-5.332-1.894c-1.197-1.263-1.795-3.078-1.795-5.447V1.072h5.475v11.722c0,1.448,0.257,2.534,0.772,3.258
		c0.515,0.724,1.335,1.086,2.459,1.086c1.532,0,2.639-0.512,3.321-1.535c0.682-1.022,1.023-2.719,1.023-5.089V1.072h5.475v20.068
		H-297.033z"/>
	<path d="M-275.887,0.695c0.742,0,1.358,0.054,1.849,0.161l-0.413,5.134c-0.443-0.119-0.981-0.18-1.616-0.18
		c-1.747,0-3.108,0.449-4.083,1.347c-0.976,0.897-1.463,2.154-1.463,3.77v10.214h-5.475V1.072h4.147l0.808,3.375h0.269
		c0.623-1.125,1.463-2.032,2.521-2.72C-278.284,1.039-277.132,0.695-275.887,0.695z"/>
	<path d="M-249.266-0.849c-2.094,0-3.716,0.786-4.865,2.36s-1.724,3.767-1.724,6.579c0,5.852,2.196,8.778,6.588,8.778
		c1.843,0,4.075-0.461,6.696-1.383v4.667c-2.155,0.897-4.56,1.346-7.217,1.346c-3.817,0-6.737-1.157-8.76-3.473
		c-2.022-2.315-3.034-5.64-3.034-9.972c0-2.729,0.497-5.119,1.49-7.171c0.994-2.053,2.42-3.627,4.281-4.722
		c1.861-1.095,4.042-1.643,6.543-1.643c2.549,0,5.11,0.616,7.683,1.85l-1.795,4.523c-0.981-0.467-1.968-0.874-2.961-1.221
		S-248.309-0.849-249.266-0.849z"/>
	<path d="M-219.181,11.07c0,3.268-0.862,5.822-2.585,7.665c-1.724,1.843-4.123,2.764-7.199,2.764c-1.926,0-3.625-0.421-5.098-1.265
		s-2.603-2.056-3.393-3.636c-0.79-1.579-1.185-3.422-1.185-5.528c0-3.279,0.856-5.828,2.567-7.646
		c1.711-1.819,4.117-2.729,7.216-2.729c1.927,0,3.626,0.419,5.098,1.256c1.472,0.838,2.603,2.041,3.393,3.608
		C-219.576,7.127-219.181,8.964-219.181,11.07z M-233.057,11.07c0,1.986,0.326,3.488,0.978,4.506
		c0.652,1.018,1.714,1.526,3.186,1.526c1.46,0,2.51-0.506,3.15-1.518c0.641-1.012,0.96-2.516,0.96-4.515
		c0-1.986-0.323-3.477-0.969-4.47s-1.705-1.489-3.177-1.489c-1.46,0-2.513,0.493-3.159,1.48S-233.057,9.072-233.057,11.07z"/>
	<path d="M-203.456,0.695c0.742,0,1.358,0.054,1.849,0.161l-0.413,5.134c-0.443-0.119-0.981-0.18-1.616-0.18
		c-1.747,0-3.108,0.449-4.084,1.347c-0.975,0.897-1.463,2.154-1.463,3.77v10.214h-5.475V1.072h4.146l0.808,3.375h0.27
		c0.622-1.125,1.463-2.032,2.522-2.72C-205.853,1.039-204.701,0.695-203.456,0.695z"/>
	<path d="M-179.438,21.141h-5.475V9.419c0-1.448-0.257-2.534-0.772-3.258c-0.514-0.725-1.334-1.086-2.459-1.086
		c-1.532,0-2.639,0.511-3.321,1.534c-0.682,1.023-1.022,2.72-1.022,5.09v9.441h-5.475V1.072h4.182l0.736,2.566h0.305
		c0.61-0.97,1.451-1.702,2.522-2.199c1.071-0.496,2.289-0.744,3.653-0.744c2.333,0,4.105,0.631,5.313,1.894
		c1.209,1.263,1.813,3.084,1.813,5.466V21.141z"/>
	<path d="M-164.718,21.499c-3.231,0-5.756-0.892-7.576-2.675c-1.819-1.782-2.728-4.308-2.728-7.574c0-3.363,0.84-5.963,2.522-7.8
		c1.681-1.837,4.006-2.755,6.974-2.755c2.836,0,5.044,0.808,6.624,2.423s2.369,3.848,2.369,6.696v2.656h-12.942
		c0.059,1.556,0.52,2.771,1.382,3.644c0.862,0.874,2.07,1.311,3.626,1.311c1.209,0,2.352-0.125,3.429-0.377
		c1.077-0.251,2.202-0.652,3.375-1.202v4.236c-0.958,0.478-1.98,0.835-3.07,1.068C-161.823,21.383-163.151,21.499-164.718,21.499z
		 M-165.49,4.59c-1.161,0-2.07,0.368-2.729,1.104c-0.658,0.735-1.035,1.78-1.13,3.133h7.683c-0.024-1.353-0.376-2.397-1.059-3.133
		C-163.408,4.958-164.33,4.59-165.49,4.59z"/>
	<path d="M-140.88,0.695c0.742,0,1.358,0.054,1.849,0.161l-0.413,5.134c-0.443-0.119-0.981-0.18-1.615-0.18
		c-1.748,0-3.109,0.449-4.084,1.347s-1.463,2.154-1.463,3.77v10.214h-5.475V1.072h4.146l0.808,3.375h0.27
		c0.622-1.125,1.463-2.032,2.522-2.72C-143.276,1.039-142.124,0.695-140.88,0.695z"/>
	<path d="M-121.385,15.182c0,2.058-0.715,3.625-2.145,4.702s-3.569,1.615-6.418,1.615c-1.459,0-2.704-0.098-3.733-0.296
		c-1.029-0.197-1.993-0.487-2.89-0.87V15.81c1.018,0.479,2.163,0.88,3.438,1.202c1.274,0.323,2.396,0.485,3.366,0.485
		c1.987,0,2.98-0.574,2.98-1.724c0-0.431-0.132-0.781-0.395-1.05c-0.263-0.27-0.718-0.575-1.364-0.916
		c-0.646-0.341-1.507-0.738-2.584-1.193c-1.544-0.646-2.678-1.244-3.402-1.795c-0.725-0.551-1.25-1.182-1.58-1.895
		c-0.329-0.712-0.494-1.588-0.494-2.629c0-1.783,0.691-3.162,2.073-4.138s3.341-1.463,5.879-1.463c2.417,0,4.769,0.526,7.055,1.579
		l-1.652,3.949c-1.005-0.431-1.944-0.783-2.818-1.06c-0.874-0.274-1.766-0.412-2.675-0.412c-1.615,0-2.424,0.437-2.424,1.311
		c0,0.49,0.261,0.915,0.781,1.274c0.521,0.358,1.66,0.892,3.419,1.598c1.568,0.634,2.717,1.227,3.447,1.777
		c0.73,0.55,1.269,1.185,1.615,1.902C-121.559,13.332-121.385,14.188-121.385,15.182z"/>
	<path d="M-89.002,3.082c0,2.824-0.883,4.984-2.647,6.48c-1.765,1.496-4.275,2.244-7.53,2.244h-2.388v9.334h-5.564V-5.104h8.383
		c3.183,0,5.604,0.686,7.261,2.056C-89.831-1.678-89.002,0.366-89.002,3.082z M-101.568,7.247h1.831
		c1.711,0,2.992-0.339,3.841-1.015s1.275-1.66,1.275-2.953c0-1.304-0.356-2.268-1.068-2.89c-0.712-0.622-1.828-0.933-3.348-0.933
		h-2.531V7.247z"/>
	<path d="M-73.277,0.695c0.742,0,1.358,0.054,1.849,0.161l-0.413,5.134c-0.443-0.119-0.981-0.18-1.615-0.18
		c-1.748,0-3.109,0.449-4.084,1.347c-0.975,0.897-1.463,2.154-1.463,3.77v10.214h-5.475V1.072h4.146l0.808,3.375h0.269
		c0.623-1.125,1.463-2.032,2.522-2.72C-75.674,1.039-74.522,0.695-73.277,0.695z"/>
	<path d="M-49.905,11.07c0,3.268-0.862,5.822-2.585,7.665c-1.723,1.843-4.123,2.764-7.198,2.764c-1.926,0-3.626-0.421-5.098-1.265
		c-1.472-0.844-2.603-2.056-3.393-3.636c-0.79-1.579-1.185-3.422-1.185-5.528c0-3.279,0.855-5.828,2.567-7.646
		c1.711-1.819,4.117-2.729,7.217-2.729c1.926,0,3.625,0.419,5.097,1.256c1.473,0.838,2.603,2.041,3.393,3.608
		S-49.905,8.964-49.905,11.07z M-63.781,11.07c0,1.986,0.326,3.488,0.979,4.506c0.652,1.018,1.714,1.526,3.186,1.526
		c1.46,0,2.51-0.506,3.151-1.518c0.64-1.012,0.96-2.516,0.96-4.515c0-1.986-0.324-3.477-0.97-4.47s-1.705-1.489-3.177-1.489
		c-1.46,0-2.513,0.493-3.159,1.48C-63.458,7.579-63.781,9.072-63.781,11.07z"/>
	<path d="M-46.998,29.973c-1.4,0-2.603-0.15-3.608-0.449v-4.308c0.837,0.227,1.693,0.341,2.566,0.341
		c0.922,0,1.595-0.258,2.02-0.772c0.425-0.514,0.638-1.274,0.638-2.279V1.072h5.475v22.24c0,2.13-0.616,3.772-1.849,4.928
		C-42.988,29.396-44.736,29.973-46.998,29.973z M-45.615-4.116c0-1.783,0.993-2.675,2.98-2.675c1.986,0,2.98,0.892,2.98,2.675
		c0,0.851-0.249,1.511-0.745,1.984c-0.497,0.473-1.242,0.708-2.235,0.708C-44.623-1.424-45.615-2.321-45.615-4.116z"/>
	<path d="M-25.08,21.499c-3.231,0-5.756-0.892-7.575-2.675c-1.819-1.782-2.729-4.308-2.729-7.574c0-3.363,0.841-5.963,2.522-7.8
		s4.006-2.755,6.974-2.755c2.836,0,5.044,0.808,6.624,2.423c1.58,1.615,2.37,3.848,2.37,6.696v2.656h-12.942
		c0.06,1.556,0.52,2.771,1.382,3.644c0.861,0.874,2.07,1.311,3.626,1.311c1.208,0,2.352-0.125,3.429-0.377
		c1.077-0.251,2.202-0.652,3.375-1.202v4.236c-0.958,0.478-1.981,0.835-3.069,1.068C-22.184,21.383-23.512,21.499-25.08,21.499z
		 M-25.851,4.59c-1.162,0-2.071,0.368-2.729,1.104c-0.658,0.735-1.035,1.78-1.131,3.133h7.683c-0.024-1.353-0.377-2.397-1.059-3.133
		C-23.769,4.958-24.691,4.59-25.851,4.59z"/>
	<path d="M-4.292,21.499c-6.248,0-9.371-3.428-9.371-10.285c0-3.41,0.85-6.017,2.55-7.817c1.699-1.801,4.134-2.701,7.306-2.701
		c2.322,0,4.404,0.454,6.247,1.363L0.823,6.296C-0.039,5.949-0.84,5.664-1.582,5.443c-0.742-0.222-1.484-0.332-2.226-0.332
		c-2.849,0-4.272,2.021-4.272,6.066c0,3.926,1.424,5.889,4.272,5.889c1.053,0,2.028-0.141,2.926-0.422s1.795-0.722,2.692-1.32v4.686
		c-0.885,0.562-1.779,0.951-2.684,1.167C-1.776,21.393-2.917,21.499-4.292,21.499z"/>
	<path d="M14.914,17.138c0.958,0,2.106-0.21,3.447-0.628v4.074c-1.365,0.61-3.04,0.915-5.027,0.915
		c-2.189,0-3.784-0.553-4.783-1.659c-0.999-1.107-1.499-2.768-1.499-4.981V5.183H4.431V2.867l3.016-1.831L9.026-3.2h3.501v4.272
		h5.618v4.11h-5.618v9.676c0,0.777,0.218,1.353,0.654,1.723C13.619,16.952,14.196,17.138,14.914,17.138z"/>
</g>
</svg>
