<?xml version="1.0" encoding="utf-8"?>
<!-- Generator: Adobe Illustrator 16.0.0, SVG Export Plug-In . SVG Version: 6.00 Build 0)  -->
<!DOCTYPE svg PUBLIC "-//W3C//DTD SVG 1.1//EN" "http://www.w3.org/Graphics/SVG/1.1/DTD/svg11.dtd">
<svg version="1.1" id="Layer_1" xmlns="http://www.w3.org/2000/svg" xmlns:xlink="http://www.w3.org/1999/xlink" x="0px" y="0px"
	 width="985.118px" height="100px" viewBox="-281.5 -28.575 985.118 100" enable-background="new -281.5 -28.575 985.118 100"
	 xml:space="preserve">
<g>
	<path fill="#80BDFF" d="M-268.722,48.642h-12.777v-61.249h35.104v10.646h-22.327v15.796h20.777v10.598h-20.777V48.642
		L-268.722,48.642z"/>
	<path fill="#80BDFF" d="M-192.858,25.141c0,7.625-2.007,13.588-6.033,17.886c-4.021,4.305-9.623,6.452-16.798,6.452
		c-4.496,0-8.462-0.98-11.898-2.951c-3.436-1.97-6.075-4.8-7.918-8.487c-1.844-3.684-2.768-7.988-2.768-12.899
		c0-7.653,1.996-13.602,5.991-17.845c3.993-4.241,9.608-6.368,16.841-6.368c4.497,0,8.462,0.978,11.897,2.931
		c3.438,1.956,6.077,4.763,7.921,8.419S-192.858,20.222-192.858,25.141z M-225.239,25.141c0,4.636,0.761,8.141,2.285,10.516
		c1.519,2.374,4,3.558,7.436,3.558c3.407,0,5.858-1.181,7.353-3.544c1.494-2.361,2.24-5.873,2.24-10.539
		c0-4.633-0.753-8.118-2.261-10.431c-1.507-2.318-3.979-3.476-7.417-3.476c-3.407,0-5.864,1.151-7.372,3.453
		C-224.485,16.99-225.239,20.475-225.239,25.141z"/>
	<path fill="#80BDFF" d="M-149.119,48.642l-1.717-5.986h-0.675c-1.367,2.179-3.307,3.858-5.821,5.046
		c-2.516,1.189-5.379,1.782-8.591,1.782c-5.499,0-9.649-1.473-12.444-4.424c-2.791-2.951-4.188-7.182-4.188-12.711V1.805h12.779
		v27.353c0,3.382,0.6,5.917,1.8,7.603c1.202,1.693,3.115,2.542,5.738,2.542c3.575,0,6.159-1.201,7.75-3.583
		c1.592-2.386,2.385-6.352,2.385-11.876V1.81h12.78v46.835L-149.119,48.642L-149.119,48.642z"/>
	<path fill="#80BDFF" d="M-99.771,0.928c1.73,0,3.169,0.125,4.317,0.374l-0.964,11.983c-1.034-0.278-2.29-0.421-3.772-0.421
		c-4.077,0-7.25,1.043-9.529,3.145c-2.278,2.092-3.414,5.025-3.414,8.797v23.839h-12.777V1.805h9.676l1.888,7.876h0.628
		c1.454-2.625,3.414-4.743,5.883-6.35C-105.363,1.728-102.675,0.928-99.771,0.928z"/>
	<path fill="#80BDFF" d="M-37.645-2.677c-4.888,0-8.673,1.834-11.352,5.504c-2.681,3.674-4.026,8.797-4.026,15.354
		c0,13.659,5.125,20.487,15.375,20.487c4.303,0,9.509-1.076,15.626-3.229v10.894c-5.029,2.092-10.642,3.143-16.843,3.143
		c-8.908,0-15.722-2.703-20.443-8.106c-4.719-5.403-7.081-13.166-7.081-23.276c0-6.368,1.16-11.942,3.478-16.735
		c2.318-4.791,5.647-8.464,9.988-11.019c4.344-2.557,9.433-3.836,15.27-3.836c5.949,0,11.926,1.434,17.933,4.319l-4.189,10.554
		c-2.29-1.094-4.595-2.04-6.91-2.854C-33.134-2.279-35.411-2.677-37.645-2.677z"/>
	<path fill="#80BDFF" d="M32.566,25.141c0,7.625-2.01,13.588-6.033,17.886c-4.024,4.305-9.623,6.452-16.799,6.452
		c-4.496,0-8.459-0.98-11.9-2.951c-3.437-1.97-6.075-4.8-7.918-8.487c-1.844-3.684-2.767-7.988-2.767-12.899
		c0-7.653,1.998-13.602,5.99-17.845c3.993-4.241,9.607-6.368,16.84-6.368c4.498,0,8.462,0.978,11.9,2.931
		c3.435,1.956,6.075,4.763,7.918,8.419C31.646,15.935,32.566,20.222,32.566,25.141z M0.183,25.141c0,4.636,0.76,8.141,2.285,10.516
		c1.519,2.374,4,3.558,7.436,3.558c3.407,0,5.859-1.181,7.351-3.544c1.496-2.361,2.24-5.873,2.24-10.539
		c0-4.633-0.754-8.118-2.262-10.431c-1.508-2.318-3.979-3.476-7.416-3.476c-3.407,0-5.865,1.151-7.371,3.453
		C0.937,16.986,0.183,20.475,0.183,25.141z"/>
	<path fill="#80BDFF" d="M69.266,0.928c1.732,0,3.168,0.125,4.315,0.374l-0.964,11.983c-1.031-0.278-2.287-0.421-3.769-0.421
		c-4.077,0-7.253,1.043-9.533,3.145c-2.275,2.092-3.414,5.025-3.414,8.797v23.839H43.124V1.805H52.8l1.888,7.876h0.63
		c1.451-2.625,3.414-4.743,5.885-6.35C63.67,1.728,66.361,0.928,69.266,0.928z"/>
	<path fill="#80BDFF" d="M125.316,48.642h-12.778V21.284c0-3.375-0.599-5.914-1.801-7.603c-1.199-1.693-3.113-2.534-5.739-2.534
		c-3.572,0-6.158,1.192-7.748,3.578c-1.594,2.384-2.385,6.35-2.385,11.88v22.032H82.088V1.805h9.76l1.718,5.987h0.712
		c1.423-2.268,3.386-3.972,5.886-5.132c2.497-1.158,5.34-1.737,8.522-1.737c5.445,0,9.58,1.475,12.399,4.422
		c2.821,2.951,4.229,7.197,4.229,12.76L125.316,48.642L125.316,48.642z"/>
	<path fill="#80BDFF" d="M159.671,49.474c-7.54,0-13.435-2.08-17.681-6.24c-4.244-4.161-6.369-10.057-6.369-17.679
		c0-7.844,1.961-13.916,5.886-18.202c3.923-4.29,9.35-6.432,16.276-6.432c6.618,0,11.771,1.887,15.459,5.657
		c3.688,3.767,5.529,8.979,5.529,15.625v6.202h-30.203c0.139,3.628,1.215,6.466,3.227,8.503c2.009,2.042,4.828,3.059,8.462,3.059
		c2.821,0,5.489-0.292,8.001-0.88c2.514-0.583,5.14-1.516,7.876-2.801v9.884c-2.234,1.117-4.617,1.946-7.164,2.491
		C166.428,49.205,163.326,49.474,159.671,49.474z M157.87,10.014c-2.71,0-4.831,0.859-6.369,2.576
		c-1.534,1.716-2.414,4.154-2.637,7.313h17.932c-0.056-3.159-0.877-5.593-2.473-7.313C162.729,10.874,160.576,10.014,157.87,10.014z
		"/>
	<path fill="#80BDFF" d="M215.304,0.928c1.729,0,3.167,0.125,4.316,0.374l-0.967,11.983c-1.03-0.278-2.283-0.421-3.765-0.421
		c-4.08,0-7.254,1.043-9.531,3.145c-2.275,2.094-3.415,5.025-3.415,8.797v23.839h-12.776V1.805h9.676l1.887,7.876h0.63
		c1.452-2.625,3.415-4.743,5.886-6.35C209.709,1.728,212.399,0.928,215.304,0.928z"/>
	<path fill="#80BDFF" d="M260.8,34.736c0,4.807-1.67,8.46-5.007,10.969c-3.341,2.517-8.33,3.77-14.978,3.77
		c-3.405,0-6.313-0.23-8.713-0.688c-2.4-0.46-4.649-1.14-6.744-2.032V36.2c2.375,1.119,5.046,2.052,8.022,2.804
		c2.972,0.75,5.593,1.128,7.854,1.128c4.636,0,6.951-1.34,6.951-4.022c0-1.01-0.308-1.821-0.923-2.452
		c-0.618-0.631-1.68-1.34-3.182-2.138c-1.507-0.8-3.52-1.723-6.03-2.785c-3.604-1.507-6.252-2.901-7.938-4.187
		c-1.693-1.285-2.917-2.758-3.688-4.424c-0.766-1.661-1.153-3.706-1.153-6.135c0-4.157,1.611-7.379,4.841-9.656
		c3.223-2.279,7.795-3.417,13.72-3.417c5.639,0,11.132,1.227,16.464,3.686l-3.854,9.216c-2.345-1.009-4.537-1.828-6.575-2.477
		c-2.042-0.636-4.123-0.962-6.244-0.962c-3.77,0-5.657,1.021-5.657,3.061c0,1.14,0.611,2.136,1.821,2.97
		c1.215,0.834,3.872,2.085,7.981,3.733c3.658,1.479,6.34,2.864,8.043,4.144c1.7,1.282,2.963,2.767,3.77,4.437
		C260.392,30.416,260.8,32.415,260.8,34.736z"/>
	<path fill="#80BDFF" d="M336.373,6.496c0,6.591-2.06,11.63-6.178,15.122c-4.116,3.491-9.972,5.239-17.569,5.239h-5.577V48.64
		h-12.979v-61.247h19.566c7.43,0,13.077,1.602,16.946,4.799C334.438-4.613,336.373,0.157,336.373,6.496z M307.044,16.216h4.275
		c3.993,0,6.983-0.791,8.962-2.371c1.985-1.577,2.974-3.872,2.974-6.89c0-3.044-0.827-5.298-2.49-6.746
		c-1.659-1.452-4.265-2.181-7.815-2.181h-5.905V16.216L307.044,16.216z"/>
	<path fill="#80BDFF" d="M373.068,0.928c1.732,0,3.168,0.125,4.316,0.374l-0.962,11.983c-1.034-0.278-2.288-0.421-3.77-0.421
		c-4.079,0-7.256,1.043-9.53,3.145c-2.277,2.092-3.414,5.025-3.414,8.797v23.839h-12.781V1.805h9.675l1.889,7.876h0.63
		c1.454-2.625,3.414-4.743,5.884-6.35C367.478,1.728,370.165,0.928,373.068,0.928z"/>
	<path fill="#80BDFF" d="M427.615,25.141c0,7.625-2.008,13.588-6.03,17.886c-4.022,4.305-9.622,6.452-16.801,6.452
		c-4.494,0-8.46-0.98-11.896-2.951c-3.436-1.97-6.076-4.8-7.92-8.487c-1.842-3.684-2.765-7.988-2.765-12.899
		c0-7.653,1.992-13.602,5.987-17.845c3.992-4.241,9.605-6.368,16.842-6.368c4.496,0,8.46,0.978,11.899,2.931
		c3.438,1.956,6.075,4.763,7.919,8.419S427.615,20.222,427.615,25.141z M395.234,25.141c0,4.636,0.759,8.141,2.286,10.516
		c1.516,2.374,4,3.558,7.437,3.558c3.409,0,5.857-1.181,7.353-3.544c1.495-2.361,2.24-5.873,2.24-10.539
		c0-4.633-0.755-8.118-2.266-10.431c-1.509-2.318-3.979-3.476-7.418-3.476c-3.405,0-5.864,1.151-7.368,3.453
		C395.986,16.99,395.234,20.475,395.234,25.141z"/>
	<path fill="#80BDFF" d="M434.4,69.254c-3.267,0-6.076-0.349-8.421-1.049V58.148c1.957,0.534,3.951,0.801,5.989,0.801
		c2.151,0,3.724-0.604,4.718-1.799c0.991-1.196,1.49-2.977,1.49-5.319V1.805h12.781v51.906c0,4.968-1.44,8.802-4.319,11.502
		C443.761,67.911,439.677,69.254,434.4,69.254z M437.63-10.303c0-4.157,2.315-6.242,6.953-6.242c4.633,0,6.953,2.085,6.953,6.242
		c0,1.99-0.583,3.53-1.741,4.631c-1.157,1.103-2.896,1.652-5.212,1.652C439.942-4.02,437.63-6.112,437.63-10.303z"/>
	<path fill="#80BDFF" d="M485.552,49.474c-7.537,0-13.434-2.08-17.679-6.24c-4.241-4.161-6.368-10.057-6.368-17.679
		c0-7.844,1.963-13.916,5.885-18.202c3.92-4.29,9.349-6.432,16.274-6.432c6.621,0,11.773,1.887,15.459,5.657
		c3.688,3.767,5.529,8.979,5.529,15.625v6.202h-30.2c0.139,3.628,1.215,6.466,3.225,8.503c2.011,2.042,4.832,3.059,8.463,3.059
		c2.818,0,5.492-0.292,8.002-0.88c2.516-0.583,5.141-1.516,7.876-2.801v9.884c-2.233,1.117-4.617,1.946-7.156,2.491
		C492.309,49.205,489.209,49.474,485.552,49.474z M483.751,10.014c-2.712,0-4.832,0.859-6.37,2.576
		c-1.536,1.716-2.416,4.154-2.639,7.313h17.931c-0.052-3.159-0.879-5.593-2.473-7.313C488.61,10.874,486.456,10.014,483.751,10.014z
		"/>
	<path fill="#80BDFF" d="M534.065,49.474c-14.581,0-21.869-8.002-21.869-24.003c0-7.954,1.982-14.041,5.952-18.239
		c3.964-4.203,9.646-6.302,17.052-6.302c5.415,0,10.274,1.058,14.579,3.18l-3.771,9.884c-2.01-0.809-3.881-1.475-5.613-1.992
		c-1.729-0.517-3.462-0.775-5.196-0.775c-6.652,0-9.967,4.718-9.967,14.153c0,9.166,3.323,13.747,9.967,13.747
		c2.459,0,4.729-0.335,6.83-0.984c2.093-0.656,4.189-1.689,6.277-3.079v10.935c-2.065,1.312-4.146,2.22-6.264,2.722
		C539.937,49.23,537.274,49.474,534.065,49.474z"/>
	<path fill="#80BDFF" d="M578.888,39.303c2.236,0,4.911-0.492,8.043-1.471v9.509c-3.184,1.42-7.095,2.133-11.73,2.133
		c-5.105,0-8.831-1.292-11.16-3.869c-2.334-2.583-3.501-6.459-3.501-11.621V11.4h-6.117V5.996l7.042-4.273l3.686-9.887h8.171v9.971
		h13.111v9.59H573.32v22.579c0,1.812,0.511,3.161,1.522,4.022C575.866,38.863,577.21,39.303,578.888,39.303z"/>
</g>
<g>
	<polygon fill="#80BDFF" points="666.871,48.521 666.871,62.656 703.618,62.656 703.618,25.91 689.485,25.91 689.485,48.521 	"/>
	<polygon fill="#80BDFF" points="689.485,-8.011 689.485,14.602 703.618,14.602 703.618,-22.148 666.871,-22.148 666.871,-8.011 	
		"/>
	<polygon fill="#80BDFF" points="618.814,14.602 632.951,14.602 632.951,-8.011 655.566,-8.011 655.566,-22.148 618.814,-22.148 	
		"/>
	<polygon fill="#80BDFF" points="655.566,62.656 655.566,48.521 632.951,48.521 632.951,25.91 618.814,25.91 618.814,62.656 	"/>
</g>
</svg>
