<?xml version="1.0" encoding="utf-8"?>
<!-- Generator: Adobe Illustrator 16.0.0, SVG Export Plug-In . SVG Version: 6.00 Build 0)  -->
<!DOCTYPE svg PUBLIC "-//W3C//DTD SVG 1.1//EN" "http://www.w3.org/Graphics/SVG/1.1/DTD/svg11.dtd">
<svg version="1.1" id="Layer_1" xmlns="http://www.w3.org/2000/svg" xmlns:xlink="http://www.w3.org/1999/xlink" x="0px" y="0px"
	 width="1280px" height="800px" viewBox="0 0 1280 800" enable-background="new 0 0 1280 800" xml:space="preserve">
<g>
	<polygon points="294,67 294,0 0,0 0,294 67,294 67,67 	"/>
</g>
<g>
	<polygon points="1213,294 1280,294 1280,0 986,0 986,67 1213,67 	"/>
</g>
<g>
	<polygon points="986,733 986,800 1280,800 1280,506 1213,506 1213,733 	"/>
</g>
<g>
	<polygon points="67,506 0,506 0,800 294,800 294,733 67,733 	"/>
</g>
<g enable-background="new    ">
	<path d="M105.157,125.236v19.867H94.179V93.329h15.086c7.035,0,12.241,1.281,15.618,3.842c3.375,2.562,5.064,6.451,5.064,11.669
		c0,3.045-0.838,5.754-2.515,8.127c-1.676,2.373-4.049,4.232-7.118,5.578l15.228,22.558h-12.182L111,125.236H105.157z
		 M105.157,116.312h3.542c3.47,0,6.032-0.578,7.685-1.735c1.652-1.156,2.479-2.975,2.479-5.454c0-2.455-0.844-4.202-2.532-5.241
		c-1.688-1.039-4.303-1.558-7.844-1.558h-3.329V116.312z"/>
	<path d="M159.127,145.812c-6.375,0-11.356-1.759-14.944-5.277c-3.589-3.518-5.383-8.499-5.383-14.944
		c0-6.634,1.659-11.763,4.976-15.387c3.317-3.624,7.903-5.436,13.758-5.436c5.595,0,9.951,1.594,13.067,4.781
		c3.117,3.188,4.675,7.591,4.675,13.209v5.241h-25.533c0.118,3.069,1.027,5.466,2.727,7.189c1.7,1.724,4.084,2.585,7.153,2.585
		c2.384,0,4.639-0.248,6.764-0.744c2.125-0.496,4.344-1.287,6.658-2.373v8.357c-1.889,0.944-3.908,1.646-6.056,2.107
		C164.84,145.581,162.219,145.812,159.127,145.812z M157.604,112.452c-2.29,0-4.084,0.726-5.383,2.178
		c-1.299,1.452-2.042,3.512-2.231,6.18h15.157c-0.047-2.668-0.744-4.728-2.089-6.18
		C161.712,113.178,159.894,112.452,157.604,112.452z"/>
	<path d="M194.859,145.103h-10.801V90h10.801V145.103z"/>
	<path d="M231.334,145.103l-2.089-5.383h-0.283c-1.818,2.29-3.689,3.878-5.613,4.763s-4.433,1.328-7.525,1.328
		c-3.802,0-6.794-1.086-8.978-3.258c-2.184-2.172-3.276-5.264-3.276-9.278c0-4.202,1.47-7.301,4.409-9.296
		c2.939-1.995,7.372-3.099,13.298-3.311l6.87-0.213v-1.735c0-4.014-2.054-6.021-6.162-6.021c-3.164,0-6.882,0.956-11.155,2.869
		l-3.577-7.295c4.556-2.384,9.609-3.577,15.157-3.577c5.312,0,9.385,1.157,12.218,3.471c2.833,2.314,4.25,5.832,4.25,10.553v26.383
		H231.334z M228.147,126.759l-4.179,0.142c-3.14,0.095-5.478,0.662-7.012,1.7c-1.535,1.039-2.302,2.621-2.302,4.745
		c0,3.045,1.747,4.568,5.241,4.568c2.502,0,4.503-0.72,6.002-2.16c1.499-1.44,2.249-3.352,2.249-5.737V126.759z"/>
	<path d="M266.677,137.206c1.889,0,4.155-0.413,6.799-1.24v8.039c-2.691,1.204-5.997,1.806-9.916,1.806
		c-4.32,0-7.467-1.092-9.438-3.276c-1.972-2.184-2.957-5.459-2.957-9.827v-19.088h-5.17v-4.568l5.949-3.612l3.117-8.357h6.905v8.428
		h11.084v8.11h-11.084v19.088c0,1.535,0.431,2.668,1.293,3.399C264.122,136.84,265.261,137.206,266.677,137.206z"/>
	<path d="M299.399,145.812c-6.375,0-11.356-1.759-14.944-5.277c-3.589-3.518-5.383-8.499-5.383-14.944
		c0-6.634,1.659-11.763,4.976-15.387c3.317-3.624,7.903-5.436,13.758-5.436c5.595,0,9.951,1.594,13.067,4.781
		c3.117,3.188,4.675,7.591,4.675,13.209v5.241h-25.533c0.118,3.069,1.027,5.466,2.727,7.189c1.7,1.724,4.084,2.585,7.153,2.585
		c2.384,0,4.639-0.248,6.764-0.744c2.125-0.496,4.344-1.287,6.658-2.373v8.357c-1.889,0.944-3.908,1.646-6.056,2.107
		C305.112,145.581,302.492,145.812,299.399,145.812z M297.876,112.452c-2.29,0-4.084,0.726-5.383,2.178
		c-1.299,1.452-2.042,3.512-2.231,6.18h15.157c-0.047-2.668-0.744-4.728-2.089-6.18
		C301.984,113.178,300.166,112.452,297.876,112.452z"/>
	<path d="M336.867,145.812c-4.651,0-8.305-1.806-10.96-5.418c-2.656-3.612-3.984-8.617-3.984-15.015
		c0-6.493,1.352-11.55,4.055-15.175c2.703-3.624,6.427-5.436,11.173-5.436c4.981,0,8.783,1.936,11.403,5.808h0.354
		c-0.543-2.951-0.814-5.583-0.814-7.897V90h10.836v55.103h-8.287l-2.09-5.135h-0.46
		C345.637,143.864,341.895,145.812,336.867,145.812z M340.656,137.206c2.762,0,4.786-0.803,6.073-2.408
		c1.287-1.605,1.989-4.332,2.107-8.181v-1.168c0-4.25-0.655-7.295-1.966-9.137c-1.31-1.842-3.441-2.762-6.392-2.762
		c-2.408,0-4.279,1.021-5.613,3.063c-1.334,2.042-2.001,5.011-2.001,8.907s0.673,6.817,2.019,8.765S338.153,137.206,340.656,137.206
		z"/>
	<path d="M113.55,232.135H90v-6.233l6.304-2.904v-33.501L90,186.594v-6.233h23.55v6.233l-6.304,2.904v33.501l6.304,2.904V232.135z"
		/>
	<path d="M157.002,232.135h-10.801V209.01c0-2.856-0.478-4.999-1.435-6.427c-0.956-1.428-2.461-2.143-4.515-2.143
		c-2.762,0-4.769,1.015-6.02,3.045c-1.252,2.031-1.877,5.371-1.877,10.022v18.627h-10.801v-39.592h8.251l1.452,5.064h0.602
		c1.062-1.818,2.597-3.241,4.604-4.268c2.006-1.027,4.308-1.541,6.906-1.541c5.925,0,9.939,1.936,12.041,5.808h0.956
		c1.062-1.842,2.626-3.27,4.692-4.285c2.065-1.015,4.396-1.523,6.994-1.523c4.485,0,7.879,1.151,10.181,3.453
		c2.302,2.302,3.453,5.991,3.453,11.067v25.816h-10.837V209.01c0-2.856-0.478-4.999-1.434-6.427
		c-0.956-1.428-2.461-2.143-4.515-2.143c-2.645,0-4.622,0.944-5.932,2.833c-1.311,1.889-1.966,4.887-1.966,8.995V232.135z"/>
	<path d="M217.913,232.135l-2.089-5.383h-0.283c-1.818,2.29-3.689,3.878-5.613,4.763s-4.433,1.328-7.525,1.328
		c-3.802,0-6.794-1.086-8.978-3.258c-2.184-2.172-3.276-5.264-3.276-9.278c0-4.202,1.47-7.301,4.409-9.296
		c2.939-1.995,7.372-3.099,13.298-3.311l6.87-0.213v-1.735c0-4.014-2.054-6.021-6.162-6.021c-3.164,0-6.882,0.956-11.155,2.869
		l-3.577-7.295c4.556-2.384,9.609-3.577,15.157-3.577c5.312,0,9.385,1.157,12.218,3.471c2.833,2.314,4.25,5.832,4.25,10.553v26.383
		H217.913z M214.726,213.791l-4.179,0.142c-3.14,0.095-5.478,0.662-7.012,1.7c-1.535,1.039-2.302,2.621-2.302,4.745
		c0,3.045,1.747,4.568,5.241,4.568c2.502,0,4.503-0.72,6.002-2.16c1.499-1.44,2.249-3.352,2.249-5.737V213.791z"/>
	<path d="M271.175,232.206c0,5.689-1.659,10.004-4.976,12.944c-3.317,2.939-8.257,4.409-14.821,4.409
		c-5.784,0-10.718-0.779-14.803-2.337v-8.641c4.792,2.03,9.939,3.045,15.44,3.045c5.548,0,8.322-2.999,8.322-8.995v-0.779
		l0.318-4.852h-0.318c-2.527,3.896-6.269,5.843-11.226,5.843c-4.746,0-8.423-1.83-11.031-5.489
		c-2.609-3.659-3.914-8.641-3.914-14.944c0-6.493,1.352-11.55,4.055-15.175c2.703-3.624,6.427-5.436,11.173-5.436
		c4.863,0,8.688,1.936,11.474,5.808h0.283l0.885-5.064h9.137V232.206z M252.972,224.38c2.904,0,4.981-0.833,6.233-2.497
		c1.251-1.665,1.877-4.362,1.877-8.092v-1.31c0-4.226-0.655-7.266-1.966-9.119c-1.31-1.853-3.417-2.78-6.321-2.78
		c-5.076,0-7.614,3.99-7.614,11.97c0,3.966,0.631,6.929,1.895,8.889C248.338,223.4,250.304,224.38,252.972,224.38z"/>
	<path d="M300.391,232.844c-6.375,0-11.356-1.759-14.944-5.277c-3.589-3.518-5.383-8.499-5.383-14.944
		c0-6.634,1.659-11.763,4.976-15.387c3.317-3.624,7.903-5.436,13.758-5.436c5.595,0,9.951,1.594,13.067,4.781
		c3.117,3.188,4.675,7.591,4.675,13.209v5.241h-25.533c0.118,3.069,1.027,5.466,2.727,7.189c1.7,1.724,4.084,2.585,7.153,2.585
		c2.384,0,4.639-0.248,6.764-0.744c2.125-0.496,4.344-1.287,6.658-2.373v8.357c-1.889,0.944-3.908,1.646-6.056,2.107
		C306.104,232.613,303.483,232.844,300.391,232.844z M298.868,199.484c-2.29,0-4.084,0.726-5.383,2.178
		c-1.299,1.452-2.042,3.512-2.231,6.18h15.157c-0.047-2.668-0.744-4.728-2.089-6.18C302.976,200.21,301.158,199.484,298.868,199.484
		z"/>
	<path d="M347.42,191.799c1.463,0,2.679,0.106,3.647,0.319l-0.814,10.128c-0.874-0.236-1.936-0.354-3.187-0.354
		c-3.447,0-6.133,0.885-8.057,2.656c-1.925,1.771-2.886,4.25-2.886,7.437v20.15h-10.801v-39.592h8.181l1.594,6.658h0.531
		c1.227-2.219,2.886-4.007,4.976-5.365C342.692,192.479,344.964,191.799,347.42,191.799z"/>
	<path d="M352.59,192.543h11.828l7.472,22.275c0.638,1.937,1.074,4.227,1.311,6.871h0.212c0.259-2.432,0.767-4.722,1.522-6.871
		l7.331-22.275h11.581l-16.751,44.656c-1.535,4.131-3.724,7.225-6.569,9.278c-2.845,2.054-6.168,3.081-9.969,3.081
		c-1.865,0-3.695-0.201-5.489-0.602v-8.57c1.298,0.307,2.714,0.46,4.25,0.46c1.913,0,3.583-0.584,5.011-1.753
		c1.428-1.168,2.543-2.934,3.346-5.294l0.638-1.948L352.59,192.543z"/>
</g>
<g enable-background="new    ">
	<path d="M1004.717,145.103V93.329h10.979v42.708h21v9.066H1004.717z"/>
	<path d="M1044.379,95.276c0-3.518,1.96-5.276,5.879-5.276s5.879,1.759,5.879,5.276c0,1.677-0.49,2.981-1.47,3.913
		c-0.979,0.933-2.449,1.399-4.409,1.399C1046.339,100.588,1044.379,98.818,1044.379,95.276z M1055.641,145.103h-10.801v-39.592
		h10.801V145.103z"/>
	<path d="M1103.52,145.103h-10.801v-23.125c0-2.856-0.508-4.999-1.523-6.427c-1.015-1.428-2.632-2.143-4.852-2.143
		c-3.021,0-5.205,1.009-6.551,3.028s-2.019,5.365-2.019,10.04v18.627h-10.802v-39.592h8.252l1.452,5.064h0.603
		c1.203-1.913,2.861-3.358,4.975-4.338c2.113-0.979,4.516-1.47,7.207-1.47c4.604,0,8.098,1.246,10.482,3.736
		c2.385,2.491,3.576,6.085,3.576,10.783V145.103z"/>
	<path d="M1125.016,123.572l4.711-6.021l11.084-12.041h12.182l-15.723,17.176l16.68,22.417h-12.467l-11.402-16.042l-4.639,3.719
		v12.324h-10.802V90h10.802v24.577l-0.567,8.995H1125.016z"/>
	<path d="M1187.237,133.346c0,4.061-1.411,7.154-4.231,9.278c-2.822,2.125-7.042,3.188-12.66,3.188
		c-2.881,0-5.336-0.195-7.367-0.584c-2.03-0.39-3.93-0.962-5.701-1.718v-8.924c2.007,0.944,4.268,1.735,6.781,2.373
		c2.516,0.637,4.729,0.956,6.641,0.956c3.919,0,5.879-1.133,5.879-3.399c0-0.85-0.26-1.541-0.779-2.072s-1.416-1.133-2.691-1.806
		s-2.975-1.458-5.1-2.355c-3.045-1.275-5.283-2.455-6.711-3.542c-1.429-1.085-2.467-2.331-3.116-3.736s-0.974-3.134-0.974-5.188
		c0-3.517,1.363-6.238,4.09-8.163c2.727-1.924,6.593-2.886,11.598-2.886c4.77,0,9.408,1.039,13.918,3.116l-3.258,7.791
		c-1.983-0.85-3.838-1.546-5.561-2.089c-1.723-0.542-3.482-0.814-5.276-0.814c-3.187,0-4.78,0.862-4.78,2.585
		c0,0.968,0.514,1.806,1.54,2.514s3.276,1.759,6.746,3.152c3.093,1.251,5.359,2.42,6.8,3.506c1.439,1.086,2.502,2.337,3.188,3.754
		C1186.895,129.698,1187.237,131.386,1187.237,133.346z"/>
</g>
<g enable-background="new    ">
	<path d="M825.029,692.576l-3.754-12.323H802.4l-3.754,12.323h-11.828l18.273-51.986h13.422l18.344,51.986H825.029z
		 M818.655,671.045c-3.47-11.166-5.425-17.481-5.86-18.945c-0.438-1.464-0.75-2.621-0.939-3.471
		c-0.778,3.021-3.01,10.494-6.692,22.416H818.655z"/>
	<path d="M870.571,692.576l-1.452-5.063h-0.566c-1.156,1.841-2.797,3.265-4.922,4.267c-2.125,1.004-4.545,1.506-7.26,1.506
		c-4.652,0-8.158-1.245-10.518-3.736c-2.361-2.49-3.542-6.073-3.542-10.748v-25.816h10.802v23.125c0,2.857,0.507,5,1.521,6.428
		c1.016,1.429,2.633,2.143,4.853,2.143c3.021,0,5.206-1.01,6.552-3.027c1.346-2.02,2.018-5.365,2.018-10.041v-18.627h10.802v39.592
		H870.571z"/>
	<path d="M906.87,684.68c1.889,0,4.155-0.413,6.8-1.24v8.039c-2.691,1.205-5.997,1.807-9.916,1.807c-4.32,0-7.467-1.092-9.438-3.275
		c-1.972-2.184-2.957-5.46-2.957-9.828v-19.088h-5.17v-4.568l5.949-3.611l3.116-8.357h6.905v8.428h11.084v8.109H902.16v19.088
		c0,1.535,0.431,2.668,1.293,3.4C904.314,684.313,905.453,684.68,906.87,684.68z"/>
	<path d="M958.22,692.576h-10.802v-23.125c0-5.713-2.124-8.569-6.374-8.569c-3.022,0-5.206,1.026-6.552,3.081
		c-1.346,2.054-2.018,5.383-2.018,9.986v18.627h-10.802v-55.103h10.802v11.226c0,0.874-0.084,2.928-0.248,6.162l-0.248,3.188h0.566
		c2.408-3.872,6.232-5.809,11.475-5.809c4.65,0,8.18,1.252,10.588,3.754c2.408,2.504,3.612,6.092,3.612,10.766V692.576z"/>
	<path d="M1005.319,672.71c0,6.444-1.7,11.485-5.099,15.121c-3.4,3.636-8.135,5.454-14.201,5.454c-3.802,0-7.154-0.832-10.058-2.497
		c-2.903-1.664-5.136-4.055-6.693-7.171c-1.558-3.117-2.337-6.752-2.337-10.907c0-6.469,1.688-11.497,5.064-15.087
		c3.375-3.588,8.121-5.383,14.235-5.383c3.802,0,7.153,0.827,10.058,2.479c2.904,1.653,5.135,4.025,6.693,7.118
		C1004.541,664.932,1005.319,668.555,1005.319,672.71z M977.945,672.71c0,3.919,0.643,6.882,1.93,8.889s3.382,3.011,6.285,3.011
		c2.881,0,4.953-0.998,6.216-2.993s1.895-4.964,1.895-8.906c0-3.919-0.638-6.858-1.912-8.818c-1.274-1.959-3.364-2.938-6.269-2.938
		c-2.881,0-4.957,0.973-6.232,2.921S977.945,668.768,977.945,672.71z"/>
	<path d="M1036.342,652.24c1.463,0,2.68,0.107,3.647,0.319l-0.814,10.128c-0.874-0.235-1.937-0.354-3.187-0.354
		c-3.447,0-6.133,0.885-8.057,2.656c-1.926,1.77-2.887,4.249-2.887,7.436v20.15h-10.801v-39.592h8.18l1.594,6.658h0.531
		c1.228-2.219,2.887-4.008,4.977-5.365C1031.614,652.92,1033.887,652.24,1036.342,652.24z"/>
	<path d="M1074.801,680.819c0,4.062-1.411,7.153-4.232,9.278c-2.82,2.125-7.041,3.188-12.66,3.188c-2.881,0-5.336-0.195-7.365-0.584
		c-2.031-0.391-3.932-0.963-5.701-1.719v-8.924c2.006,0.945,4.267,1.735,6.781,2.373c2.514,0.637,4.728,0.956,6.64,0.956
		c3.919,0,5.879-1.134,5.879-3.399c0-0.85-0.261-1.541-0.779-2.072c-0.52-0.531-1.417-1.133-2.691-1.806s-2.975-1.458-5.1-2.354
		c-3.046-1.275-5.282-2.455-6.711-3.542c-1.429-1.085-2.468-2.331-3.116-3.735c-0.649-1.405-0.975-3.135-0.975-5.189
		c0-3.517,1.364-6.238,4.091-8.162c2.728-1.924,6.593-2.887,11.599-2.887c4.768,0,9.407,1.039,13.917,3.117l-3.259,7.791
		c-1.982-0.85-3.836-1.547-5.559-2.09c-1.725-0.543-3.483-0.814-5.277-0.814c-3.188,0-4.781,0.862-4.781,2.586
		c0,0.968,0.514,1.805,1.541,2.514s3.275,1.76,6.746,3.152c3.093,1.251,5.359,2.42,6.799,3.506c1.44,1.086,2.503,2.337,3.188,3.754
		C1074.459,677.172,1074.801,678.859,1074.801,680.819z"/>
	<path d="M1119.775,692.576h-10.801v-23.125c0-5.713-2.125-8.569-6.375-8.569c-3.021,0-5.205,1.026-6.551,3.081
		c-1.346,2.054-2.019,5.383-2.019,9.986v18.627h-10.802v-55.103h10.802v11.226c0,0.874-0.083,2.928-0.248,6.162l-0.247,3.188h0.566
		c2.408-3.872,6.232-5.809,11.474-5.809c4.65,0,8.181,1.252,10.589,3.754c2.408,2.504,3.611,6.092,3.611,10.766V692.576z"/>
	<path d="M1130.436,642.75c0-3.518,1.959-5.276,5.879-5.276c3.918,0,5.878,1.759,5.878,5.276c0,1.677-0.49,2.98-1.47,3.913
		c-0.98,0.933-2.449,1.399-4.408,1.399C1132.395,648.062,1130.436,646.291,1130.436,642.75z M1141.697,692.576h-10.802v-39.592
		h10.802V692.576z"/>
	<path d="M1174.773,693.285c-4.652,0-8.3-1.688-10.943-5.064h-0.566c0.377,3.306,0.566,5.217,0.566,5.737V710h-10.801v-57.016h8.782
		l1.522,5.135h0.496c2.525-3.918,6.268-5.879,11.227-5.879c4.674,0,8.333,1.807,10.978,5.419c2.644,3.612,3.966,8.629,3.966,15.051
		c0,4.226-0.619,7.897-1.859,11.013c-1.238,3.117-3.004,5.49-5.293,7.119C1180.557,692.471,1177.865,693.285,1174.773,693.285z
		 M1171.586,660.882c-2.668,0-4.616,0.82-5.844,2.461c-1.228,1.642-1.865,4.351-1.912,8.128v1.168c0,4.25,0.631,7.295,1.895,9.137
		c1.263,1.842,3.264,2.762,6.002,2.762c4.84,0,7.26-3.988,7.26-11.969c0-3.896-0.596-6.817-1.787-8.766
		C1176.006,661.855,1174.135,660.882,1171.586,660.882z"/>
</g>
<g enable-background="new    ">
	<path d="M90,640.803h16.113c7.342,0,12.672,1.045,15.989,3.134s4.976,5.413,4.976,9.969c0,3.093-0.726,5.631-2.178,7.614
		c-1.452,1.982-3.382,3.176-5.79,3.576v0.354c3.281,0.731,5.648,2.102,7.1,4.108c1.452,2.006,2.178,4.674,2.178,8.003
		c0,4.722-1.706,8.405-5.117,11.049c-3.412,2.645-8.045,3.966-13.9,3.966H90V640.803z M100.978,661.307h6.375
		c2.975,0,5.129-0.461,6.463-1.381c1.333-0.921,2.001-2.443,2.001-4.568c0-1.983-0.726-3.405-2.178-4.268
		c-1.452-0.861-3.748-1.293-6.888-1.293h-5.772V661.307z M100.978,670.019v13.492h7.154c3.021,0,5.252-0.578,6.693-1.735
		c1.44-1.156,2.16-2.927,2.16-5.312c0-4.296-3.069-6.444-9.208-6.444H100.978z"/>
	<path d="M163.022,692.576l-2.089-5.383h-0.283c-1.818,2.291-3.689,3.879-5.613,4.764s-4.433,1.328-7.525,1.328
		c-3.802,0-6.794-1.086-8.978-3.258c-2.184-2.172-3.276-5.265-3.276-9.279c0-4.201,1.47-7.301,4.409-9.295
		c2.939-1.995,7.372-3.1,13.298-3.312l6.87-0.213v-1.735c0-4.014-2.054-6.02-6.162-6.02c-3.164,0-6.882,0.955-11.155,2.868
		l-3.577-7.296c4.556-2.384,9.609-3.576,15.157-3.576c5.312,0,9.385,1.157,12.218,3.471c2.833,2.314,4.25,5.832,4.25,10.553v26.383
		H163.022z M159.835,674.232l-4.179,0.142c-3.14,0.095-5.478,0.661-7.012,1.7s-2.302,2.621-2.302,4.745
		c0,3.046,1.747,4.568,5.241,4.568c2.502,0,4.503-0.72,6.002-2.16c1.499-1.44,2.249-3.353,2.249-5.737V674.232z"/>
	<path d="M197.763,693.285c-12.324,0-18.486-6.764-18.486-20.292c0-6.729,1.676-11.869,5.029-15.423
		c3.352-3.553,8.157-5.33,14.414-5.33c4.58,0,8.688,0.898,12.324,2.691l-3.188,8.357c-1.7-0.684-3.282-1.244-4.745-1.682
		c-1.464-0.437-2.928-0.654-4.391-0.654c-5.619,0-8.429,3.989-8.429,11.969c0,7.744,2.81,11.615,8.429,11.615
		c2.077,0,4.001-0.276,5.772-0.832c1.771-0.554,3.542-1.422,5.312-2.603v9.243c-1.747,1.109-3.512,1.877-5.294,2.302
		C202.726,693.072,200.478,693.285,197.763,693.285z"/>
	<path d="M229.352,671.045l4.71-6.02l11.084-12.041h12.183l-15.724,17.176l16.68,22.416h-12.466l-11.403-16.042l-4.639,3.719v12.323
		h-10.801v-55.103h10.801v24.577l-0.567,8.994H229.352z"/>
	<path d="M291.573,680.819c0,4.062-1.411,7.153-4.232,9.278c-2.821,2.125-7.042,3.188-12.66,3.188c-2.881,0-5.336-0.195-7.366-0.584
		c-2.031-0.391-3.931-0.963-5.701-1.719v-8.924c2.006,0.945,4.267,1.735,6.781,2.373c2.515,0.637,4.728,0.956,6.64,0.956
		c3.919,0,5.879-1.134,5.879-3.399c0-0.85-0.26-1.541-0.779-2.072c-0.52-0.531-1.417-1.133-2.691-1.806s-2.975-1.458-5.1-2.354
		c-3.045-1.275-5.283-2.455-6.711-3.542c-1.429-1.085-2.467-2.331-3.116-3.735c-0.649-1.405-0.974-3.135-0.974-5.189
		c0-3.517,1.364-6.238,4.09-8.162c2.727-1.924,6.593-2.887,11.598-2.887c4.769,0,9.408,1.039,13.917,3.117l-3.258,7.791
		c-1.983-0.85-3.837-1.547-5.56-2.09c-1.724-0.543-3.483-0.814-5.277-0.814c-3.187,0-4.781,0.862-4.781,2.586
		c0,0.968,0.514,1.805,1.541,2.514s3.276,1.76,6.746,3.152c3.093,1.251,5.359,2.42,6.799,3.506s2.502,2.337,3.188,3.754
		C291.231,677.172,291.573,678.859,291.573,680.819z"/>
	<path d="M316.681,684.68c1.889,0,4.155-0.413,6.799-1.24v8.039c-2.691,1.205-5.997,1.807-9.916,1.807
		c-4.32,0-7.467-1.092-9.438-3.275c-1.972-2.184-2.957-5.46-2.957-9.828v-19.088H296v-4.568l5.949-3.611l3.117-8.357h6.905v8.428
		h11.084v8.109h-11.084v19.088c0,1.535,0.431,2.668,1.293,3.4C314.125,684.313,315.265,684.68,316.681,684.68z"/>
	<path d="M367.464,672.71c0,6.444-1.7,11.485-5.099,15.121c-3.4,3.636-8.134,5.454-14.201,5.454c-3.801,0-7.153-0.832-10.057-2.497
		c-2.904-1.664-5.135-4.055-6.693-7.171c-1.558-3.117-2.337-6.752-2.337-10.907c0-6.469,1.688-11.497,5.064-15.087
		c3.376-3.588,8.121-5.383,14.236-5.383c3.801,0,7.154,0.827,10.058,2.479c2.904,1.653,5.135,4.025,6.693,7.118
		C366.685,664.932,367.464,668.555,367.464,672.71z M340.089,672.71c0,3.919,0.643,6.882,1.93,8.889
		c1.287,2.007,3.382,3.011,6.286,3.011c2.88,0,4.952-0.998,6.215-2.993c1.263-1.995,1.895-4.964,1.895-8.906
		c0-3.919-0.637-6.858-1.912-8.818c-1.275-1.959-3.364-2.938-6.269-2.938c-2.88,0-4.958,0.973-6.232,2.921
		S340.089,668.768,340.089,672.71z"/>
	<path d="M398.486,652.24c1.463,0,2.679,0.107,3.647,0.319l-0.814,10.128c-0.874-0.235-1.936-0.354-3.187-0.354
		c-3.447,0-6.133,0.885-8.057,2.656c-1.925,1.77-2.886,4.249-2.886,7.436v20.15h-10.801v-39.592h8.181l1.594,6.658h0.531
		c1.227-2.219,2.886-4.008,4.976-5.365C393.759,652.92,396.031,652.24,398.486,652.24z"/>
	<path d="M403.656,652.984h11.828l7.472,22.275c0.638,1.936,1.074,4.227,1.311,6.87h0.212c0.259-2.432,0.767-4.722,1.522-6.87
		l7.331-22.275h11.581l-16.751,44.656c-1.535,4.131-3.724,7.225-6.569,9.278c-2.845,2.054-6.168,3.081-9.969,3.081
		c-1.865,0-3.695-0.201-5.489-0.602v-8.57c1.298,0.307,2.714,0.461,4.25,0.461c1.913,0,3.583-0.585,5.011-1.754
		c1.428-1.168,2.543-2.934,3.346-5.294l0.638-1.948L403.656,652.984z"/>
</g>
</svg>
