<?xml version="1.0" encoding="utf-8"?>
<!-- Generator: Adobe Illustrator 16.0.0, SVG Export Plug-In . SVG Version: 6.00 Build 0)  -->
<!DOCTYPE svg PUBLIC "-//W3C//DTD SVG 1.1//EN" "http://www.w3.org/Graphics/SVG/1.1/DTD/svg11.dtd">
<svg version="1.1" id="Layer_1" xmlns="http://www.w3.org/2000/svg" xmlns:xlink="http://www.w3.org/1999/xlink" x="0px" y="0px"
	 width="422.119px" height="42.85px" viewBox="0 0 422.119 42.85" enable-background="new 0 0 422.119 42.85" xml:space="preserve">
<g>
	<path fill="#80BDFF" d="M5.476,34.018H0.001V7.773h15.042v4.561H5.476v6.769h8.903v4.541H5.476V34.018L5.476,34.018z"/>
	<path fill="#80BDFF" d="M37.983,23.947c0,3.268-0.86,5.823-2.585,7.665c-1.723,1.844-4.123,2.764-7.198,2.764
		c-1.926,0-3.626-0.42-5.098-1.264s-2.603-2.057-3.393-3.637c-0.79-1.578-1.186-3.423-1.186-5.528c0-3.279,0.855-5.828,2.567-7.646
		c1.711-1.817,4.117-2.729,7.216-2.729c1.927,0,3.626,0.419,5.098,1.256c1.473,0.838,2.604,2.041,3.394,3.608
		C37.588,20.002,37.983,21.84,37.983,23.947z M24.108,23.947c0,1.987,0.326,3.489,0.979,4.506c0.651,1.018,1.714,1.525,3.186,1.525
		c1.46,0,2.51-0.506,3.151-1.519c0.64-1.012,0.96-2.516,0.96-4.515c0-1.986-0.323-3.479-0.969-4.47
		c-0.646-0.993-1.705-1.489-3.178-1.489c-1.46,0-2.513,0.493-3.159,1.479C24.431,20.455,24.108,21.948,24.108,23.947z"/>
	<path fill="#80BDFF" d="M56.725,34.018l-0.736-2.566H55.7c-0.586,0.934-1.417,1.654-2.494,2.162
		c-1.078,0.51-2.305,0.764-3.681,0.764c-2.356,0-4.135-0.631-5.332-1.895c-1.196-1.265-1.795-3.078-1.795-5.447V13.948h5.476v11.721
		c0,1.449,0.257,2.535,0.771,3.258c0.515,0.726,1.335,1.089,2.459,1.089c1.532,0,2.639-0.515,3.321-1.535
		c0.682-1.023,1.022-2.722,1.022-5.089v-9.442h5.476v20.069L56.725,34.018L56.725,34.018z"/>
	<path fill="#80BDFF" d="M77.87,13.572c0.742,0,1.358,0.054,1.85,0.161l-0.413,5.134c-0.443-0.119-0.981-0.18-1.616-0.18
		c-1.747,0-3.107,0.447-4.083,1.347c-0.976,0.897-1.463,2.154-1.463,3.77v10.215H66.67V13.948h4.146l0.809,3.375h0.269
		c0.623-1.125,1.463-2.032,2.521-2.72C75.474,13.915,76.626,13.572,77.87,13.572z"/>
	<path fill="#80BDFF" d="M104.491,12.028c-2.094,0-3.716,0.786-4.864,2.358c-1.149,1.574-1.725,3.769-1.725,6.579
		c0,5.853,2.196,8.778,6.588,8.778c1.844,0,4.075-0.461,6.696-1.383v4.668c-2.155,0.896-4.56,1.346-7.217,1.346
		c-3.817,0-6.737-1.158-8.76-3.473c-2.022-2.316-3.034-5.642-3.034-9.974c0-2.729,0.497-5.117,1.49-7.171
		c0.993-2.053,2.42-3.627,4.28-4.722c1.861-1.095,4.042-1.643,6.543-1.643c2.549,0,5.11,0.614,7.684,1.85l-1.795,4.523
		c-0.981-0.469-1.969-0.874-2.961-1.223C106.424,12.198,105.448,12.028,104.491,12.028z"/>
	<path fill="#80BDFF" d="M134.576,23.947c0,3.268-0.861,5.823-2.585,7.665c-1.724,1.844-4.123,2.764-7.198,2.764
		c-1.927,0-3.625-0.42-5.099-1.264c-1.473-0.844-2.603-2.057-3.393-3.637c-0.79-1.578-1.186-3.423-1.186-5.528
		c0-3.279,0.856-5.828,2.567-7.646c1.711-1.817,4.117-2.729,7.216-2.729c1.927,0,3.626,0.419,5.099,1.256
		c1.472,0.838,2.603,2.041,3.393,3.608C134.182,20.003,134.576,21.84,134.576,23.947z M120.7,23.947
		c0,1.987,0.326,3.489,0.979,4.506c0.651,1.018,1.714,1.525,3.186,1.525c1.46,0,2.511-0.506,3.15-1.519
		c0.641-1.012,0.96-2.516,0.96-4.515c0-1.986-0.323-3.479-0.969-4.47c-0.646-0.993-1.705-1.489-3.178-1.489
		c-1.46,0-2.513,0.493-3.158,1.479C121.023,20.453,120.7,21.948,120.7,23.947z"/>
	<path fill="#80BDFF" d="M150.302,13.572c0.742,0,1.357,0.054,1.849,0.161l-0.413,5.134c-0.442-0.119-0.98-0.18-1.615-0.18
		c-1.747,0-3.108,0.447-4.085,1.347c-0.975,0.897-1.463,2.154-1.463,3.77v10.215H139.1V13.948h4.146l0.809,3.375h0.27
		c0.622-1.125,1.463-2.032,2.522-2.72C147.904,13.915,149.057,13.572,150.302,13.572z"/>
	<path fill="#80BDFF" d="M174.319,34.018h-5.475V22.295c0-1.446-0.257-2.534-0.772-3.258c-0.514-0.725-1.334-1.086-2.459-1.086
		c-1.531,0-2.639,0.511-3.32,1.534c-0.683,1.021-1.022,2.72-1.022,5.09v9.441h-5.475V13.948h4.182l0.736,2.566h0.305
		c0.61-0.972,1.451-1.702,2.522-2.199c1.07-0.496,2.288-0.744,3.652-0.744c2.333,0,4.105,0.631,5.313,1.894
		c1.209,1.265,1.812,3.084,1.812,5.468L174.319,34.018L174.319,34.018z"/>
	<path fill="#80BDFF" d="M189.04,34.374c-3.231,0-5.757-0.891-7.576-2.674c-1.819-1.783-2.729-4.309-2.729-7.575
		c0-3.361,0.84-5.963,2.522-7.8c1.681-1.837,4.006-2.755,6.974-2.755c2.836,0,5.044,0.808,6.624,2.423s2.369,3.848,2.369,6.696
		v2.657h-12.942c0.06,1.555,0.521,2.77,1.383,3.643c0.861,0.875,2.069,1.311,3.626,1.311c1.209,0,2.352-0.125,3.429-0.377
		c1.077-0.25,2.202-0.649,3.375-1.2v4.235c-0.958,0.479-1.979,0.834-3.07,1.068C191.935,34.259,190.606,34.374,189.04,34.374z
		 M188.268,17.466c-1.161,0-2.07,0.368-2.729,1.104c-0.657,0.735-1.034,1.78-1.13,3.133h7.684c-0.024-1.353-0.376-2.396-1.06-3.133
		C190.35,17.834,189.428,17.466,188.268,17.466z"/>
	<path fill="#80BDFF" d="M212.878,13.572c0.741,0,1.357,0.054,1.85,0.161l-0.414,5.134c-0.442-0.119-0.979-0.18-1.614-0.18
		c-1.748,0-3.108,0.447-4.084,1.347c-0.975,0.898-1.463,2.154-1.463,3.77v10.215h-5.475V13.948h4.146l0.809,3.375h0.27
		c0.622-1.125,1.463-2.032,2.522-2.72C210.481,13.915,211.634,13.572,212.878,13.572z"/>
	<path fill="#80BDFF" d="M232.373,28.059c0,2.059-0.716,3.625-2.146,4.7c-1.431,1.078-3.569,1.615-6.418,1.615
		c-1.459,0-2.705-0.098-3.733-0.295s-1.992-0.488-2.89-0.871v-4.521c1.018,0.479,2.162,0.879,3.438,1.201
		c1.273,0.321,2.396,0.483,3.365,0.483c1.986,0,2.979-0.574,2.979-1.723c0-0.433-0.132-0.781-0.396-1.051
		c-0.264-0.271-0.719-0.574-1.363-0.916c-0.646-0.343-1.508-0.738-2.584-1.193c-1.544-0.646-2.679-1.244-3.402-1.794
		c-0.725-0.551-1.25-1.182-1.58-1.896c-0.328-0.712-0.494-1.588-0.494-2.629c0-1.781,0.691-3.162,2.074-4.138
		c1.381-0.976,3.34-1.463,5.879-1.463c2.416,0,4.77,0.525,7.055,1.579l-1.651,3.949c-1.005-0.433-1.944-0.783-2.817-1.062
		c-0.875-0.272-1.767-0.412-2.676-0.412c-1.615,0-2.424,0.438-2.424,1.312c0,0.488,0.262,0.915,0.78,1.272
		c0.521,0.358,1.659,0.894,3.42,1.6c1.567,0.634,2.717,1.227,3.446,1.775c0.729,0.55,1.27,1.186,1.615,1.902
		C232.198,26.208,232.373,27.065,232.373,28.059z"/>
	<path fill="#80BDFF" d="M264.756,15.958c0,2.824-0.883,4.984-2.647,6.48c-1.764,1.496-4.273,2.245-7.529,2.245h-2.389v9.334h-5.562
		V7.773h8.383c3.184,0,5.604,0.686,7.262,2.056C263.927,11.198,264.756,13.242,264.756,15.958z M252.188,20.123h1.832
		c1.711,0,2.992-0.339,3.84-1.015c0.851-0.676,1.275-1.66,1.275-2.953c0-1.304-0.355-2.27-1.068-2.89
		c-0.711-0.622-1.827-0.935-3.348-0.935h-2.531V20.123L252.188,20.123z"/>
	<path fill="#80BDFF" d="M280.479,13.572c0.742,0,1.358,0.054,1.85,0.161l-0.412,5.134c-0.443-0.119-0.98-0.18-1.615-0.18
		c-1.748,0-3.109,0.447-4.084,1.347c-0.976,0.897-1.463,2.154-1.463,3.77v10.215h-5.477V13.948h4.146l0.809,3.375h0.27
		c0.623-1.125,1.463-2.032,2.521-2.72C278.084,13.915,279.235,13.572,280.479,13.572z"/>
	<path fill="#80BDFF" d="M303.853,23.947c0,3.268-0.861,5.823-2.584,7.665c-1.724,1.844-4.123,2.764-7.199,2.764
		c-1.926,0-3.625-0.42-5.098-1.264c-1.472-0.844-2.604-2.057-3.394-3.637c-0.789-1.578-1.185-3.423-1.185-5.528
		c0-3.279,0.854-5.828,2.566-7.646c1.711-1.817,4.116-2.729,7.217-2.729c1.926,0,3.625,0.419,5.098,1.256
		c1.474,0.838,2.604,2.041,3.394,3.608C303.458,20.002,303.853,21.84,303.853,23.947z M289.978,23.947
		c0,1.987,0.325,3.489,0.979,4.506c0.65,1.018,1.714,1.525,3.186,1.525c1.461,0,2.51-0.506,3.151-1.519
		c0.64-1.012,0.96-2.516,0.96-4.515c0-1.986-0.324-3.479-0.971-4.47c-0.646-0.993-1.705-1.489-3.178-1.489
		c-1.459,0-2.513,0.493-3.158,1.479C290.3,20.455,289.978,21.948,289.978,23.947z"/>
	<path fill="#80BDFF" d="M306.76,42.85c-1.399,0-2.604-0.15-3.608-0.449v-4.31c0.838,0.229,1.693,0.343,2.566,0.343
		c0.922,0,1.596-0.259,2.021-0.771s0.639-1.275,0.639-2.279V13.948h5.476V36.19c0,2.129-0.617,3.771-1.85,4.928
		S309.021,42.85,306.76,42.85z M308.144,8.76c0-1.781,0.992-2.675,2.979-2.675c1.985,0,2.979,0.894,2.979,2.675
		c0,0.853-0.25,1.513-0.746,1.984c-0.496,0.473-1.241,0.708-2.233,0.708C309.135,11.452,308.144,10.556,308.144,8.76z"/>
	<path fill="#80BDFF" d="M328.678,34.374c-3.23,0-5.756-0.891-7.575-2.674c-1.818-1.783-2.729-4.309-2.729-7.575
		c0-3.361,0.841-5.963,2.521-7.8c1.68-1.837,4.006-2.755,6.974-2.755c2.837,0,5.045,0.808,6.624,2.423
		c1.58,1.615,2.369,3.848,2.369,6.696v2.657h-12.94c0.06,1.555,0.521,2.77,1.382,3.643c0.861,0.875,2.07,1.311,3.626,1.311
		c1.208,0,2.353-0.125,3.429-0.377c1.078-0.25,2.203-0.649,3.375-1.2v4.235c-0.957,0.479-1.979,0.834-3.067,1.068
		C331.573,34.259,330.245,34.374,328.678,34.374z M327.906,17.466c-1.162,0-2.07,0.368-2.729,1.104
		c-0.658,0.735-1.035,1.78-1.131,3.133h7.684c-0.023-1.353-0.377-2.396-1.06-3.133C329.988,17.834,329.065,17.466,327.906,17.466z"
		/>
	<path fill="#80BDFF" d="M349.466,34.374c-6.248,0-9.371-3.428-9.371-10.285c0-3.408,0.85-6.017,2.551-7.815
		c1.698-1.801,4.133-2.701,7.306-2.701c2.321,0,4.403,0.454,6.247,1.363l-1.616,4.235c-0.862-0.347-1.663-0.632-2.405-0.853
		c-0.742-0.222-1.484-0.332-2.227-0.332c-2.85,0-4.271,2.021-4.271,6.064c0,3.928,1.424,5.891,4.271,5.891
		c1.054,0,2.027-0.144,2.927-0.422c0.897-0.281,1.795-0.724,2.69-1.32v4.686c-0.885,0.562-1.777,0.951-2.684,1.166
		C351.981,34.27,350.841,34.374,349.466,34.374z"/>
	<path fill="#80BDFF" d="M368.672,30.016c0.958,0,2.104-0.211,3.446-0.63v4.074c-1.364,0.609-3.04,0.914-5.026,0.914
		c-2.188,0-3.784-0.553-4.782-1.658c-1-1.106-1.5-2.768-1.5-4.979V18.06h-2.621v-2.316l3.017-1.831l1.579-4.236h3.501v4.272h5.618
		v4.11h-5.618v9.675c0,0.776,0.219,1.354,0.653,1.723C367.377,29.827,367.953,30.016,368.672,30.016z"/>
</g>
<g>
	<polygon fill="#80BDFF" points="406.372,33.537 406.372,39.594 422.118,39.594 422.118,23.849 416.062,23.849 416.062,33.537 	"/>
	<polygon fill="#80BDFF" points="416.062,9.314 416.062,19.003 422.118,19.003 422.118,3.256 406.372,3.256 406.372,9.314 	"/>
	<polygon fill="#80BDFF" points="385.78,19.003 391.838,19.003 391.838,9.314 401.528,9.314 401.528,3.256 385.78,3.256 	"/>
	<polygon fill="#80BDFF" points="401.528,39.594 401.528,33.537 391.838,33.537 391.838,23.849 385.78,23.849 385.78,39.594 	"/>
</g>
</svg>
