<?xml version="1.0" encoding="utf-8"?>
<!-- Generator: Adobe Illustrator 16.0.0, SVG Export Plug-In . SVG Version: 6.00 Build 0)  -->
<!DOCTYPE svg PUBLIC "-//W3C//DTD SVG 1.1//EN" "http://www.w3.org/Graphics/SVG/1.1/DTD/svg11.dtd">
<svg version="1.1" xmlns="http://www.w3.org/2000/svg" xmlns:xlink="http://www.w3.org/1999/xlink" x="0px" y="0px" width="1280px"
	 height="800px" viewBox="0 0 1280 800" enable-background="new 0 0 1280 800" xml:space="preserve">
<g id="Layer_1">
	<rect fill="#AFD5FF" width="1280" height="800"/>
</g>
<g id="Layer_2">
	<g>
		<polygon fill="#80BDFF" points="546.049,487.63 537.807,472.525 471.529,508.693 507.697,574.971 522.801,566.729 
			494.875,515.556 		"/>
	</g>
	<g>
		<polygon fill="#80BDFF" points="724.238,549.903 741.154,546.753 727.325,472.525 653.1,486.355 656.25,503.271 713.562,492.593 
					"/>
	</g>
	<g>
		<polygon fill="#80BDFF" points="1024.6,572.099 1010.23,581.563 1051.764,644.617 1114.817,603.083 1105.353,588.714 
			1056.669,620.783 		"/>
	</g>
	<g>
		<polygon fill="#80BDFF" points="1126.305,731.027 1133.399,715.352 1064.613,684.218 1033.48,753.003 1049.155,760.099 
			1073.193,706.988 		"/>
	</g>
	<g>
		<polygon fill="#80BDFF" points="255.955,591.756 263.18,576.139 194.654,544.436 162.951,612.961 178.567,620.186 
			203.045,567.277 		"/>
	</g>
	<g>
		<polygon fill="#80BDFF" points="126.161,429.724 142.814,425.392 123.803,352.32 50.732,371.331 55.064,387.983 111.483,373.305 
					"/>
	</g>
	<g>
		<polygon fill="#80BDFF" points="356.464,628.75 340.379,622.637 313.559,693.216 384.139,720.037 390.25,703.953 335.756,683.244 
					"/>
	</g>
	<g>
		<polygon fill="#80BDFF" points="73.55,714.537 59.671,724.711 104.312,785.604 165.206,740.963 155.033,727.087 108.017,761.553 
					"/>
	</g>
	<g>
		<polygon fill="#80BDFF" points="27.75,618.629 36.123,633.662 102.083,596.919 65.341,530.959 50.309,539.332 78.678,590.261 		
			"/>
	</g>
	<g>
		<polygon fill="#80BDFF" points="837.889,295.78 853.927,302.013 881.275,231.635 810.897,204.288 804.665,220.326 
			859.004,241.441 		"/>
	</g>
	<g>
		<polygon fill="#80BDFF" points="1173.504,439.905 1163.488,425.914 1102.096,469.868 1146.051,531.26 1160.042,521.242 
			1126.104,473.842 		"/>
	</g>
	<g>
		<polygon fill="#80BDFF" points="1115.536,211.812 1121.553,227.933 1192.292,201.534 1165.891,130.795 1149.771,136.811 
			1170.154,191.429 		"/>
	</g>
	<g>
		<polygon fill="#80BDFF" points="1115.565,69.732 1122.887,54.161 1054.56,22.032 1022.432,90.36 1038.003,97.682 1062.809,44.925 
					"/>
	</g>
	<g>
		<polygon fill="#80BDFF" points="482.253,175.996 465.977,170.415 441.485,241.837 512.909,266.326 518.49,250.05 463.344,231.142 
					"/>
	</g>
	<g>
		<polygon fill="#80BDFF" points="288.458,489.744 295.89,505.263 363.988,472.65 331.375,404.553 315.856,411.985 341.037,464.563 
					"/>
	</g>
	<g>
		<polygon fill="#80BDFF" points="564.265,686.901 572.819,671.972 507.308,634.434 469.77,699.945 484.7,708.5 513.683,657.918 		
			"/>
	</g>
	<g>
		<polygon fill="#80BDFF" points="954.199,372.956 941.846,384.934 994.407,439.139 1048.611,386.577 1036.634,374.225 
			994.782,414.808 		"/>
	</g>
	<g>
		<polygon fill="#80BDFF" points="798.533,766.243 805.104,782.146 874.884,753.308 846.045,683.528 830.145,690.101 
			852.41,743.977 		"/>
	</g>
	<g>
		<polygon fill="#80BDFF" points="914.547,585.771 898.72,579.018 869.085,648.462 938.53,678.097 945.283,662.272 891.665,639.391 
					"/>
	</g>
	<g>
		<polygon fill="#80BDFF" points="1192.295,767.028 1204.676,778.979 1257.112,724.654 1202.786,672.218 1190.838,684.597 
			1232.781,725.084 		"/>
	</g>
	<g>
		<polygon fill="#80BDFF" points="700.757,610.423 683.561,609.838 680.999,685.299 756.459,687.859 757.043,670.663 
			698.779,668.686 		"/>
	</g>
	<g>
		<polygon fill="#80BDFF" points="568.953,750.476 561.789,766.119 630.439,797.553 661.871,728.902 646.227,721.739 
			621.957,774.744 		"/>
	</g>
	<g>
		<polygon fill="#80BDFF" points="470.787,407.027 477.754,422.762 546.791,392.187 516.216,323.151 500.484,330.118 
			524.091,383.421 		"/>
	</g>
	<g>
		<polygon fill="#80BDFF" points="707.563,355.196 697.127,368.876 757.16,414.669 802.951,354.636 789.271,344.201 
			753.914,390.552 		"/>
	</g>
	<g>
		<polygon fill="#80BDFF" points="122.926,192.338 112.119,205.728 170.872,253.15 218.294,194.397 204.906,183.59 168.29,228.954 
					"/>
	</g>
	<g>
		<polygon fill="#80BDFF" points="768.5,35.424 751.989,30.58 730.735,103.031 803.187,124.284 808.03,107.773 752.09,91.364 		"/>
	</g>
	<g>
		<polygon fill="#80BDFF" points="55.426,37.044 38.28,38.488 44.618,113.726 119.855,107.387 118.411,90.242 60.319,95.136 		"/>
	</g>
	<g>
		<polygon fill="#80BDFF" points="904.056,14.691 886.895,15.942 892.383,91.246 967.687,85.757 966.437,68.598 908.293,72.835 		
			"/>
	</g>
	<g>
		<polygon fill="#80BDFF" points="1061.733,301.495 1075.372,291.003 1029.338,231.157 969.492,277.192 979.98,290.829 
			1026.189,255.286 		"/>
	</g>
	<g>
		<polygon fill="#80BDFF" points="644.948,194.336 662.122,195.402 666.799,120.043 591.441,115.366 590.375,132.539 648.56,136.15 
					"/>
	</g>
	<g>
		<polygon fill="#80BDFF" points="682.145,280.79 687.244,264.355 615.131,241.981 592.757,314.093 609.19,319.192 626.465,263.514 
					"/>
	</g>
	<g>
		<polygon fill="#80BDFF" points="368.176,271.675 384.136,265.244 355.916,195.212 285.884,223.432 292.315,239.391 
			346.387,217.602 		"/>
	</g>
	<g>
		<polygon fill="#80BDFF" points="225.406,98.453 232.688,114.043 301.097,82.089 269.144,13.681 253.555,20.962 278.226,73.781 		
			"/>
	</g>
	<g>
		<polygon fill="#80BDFF" points="448.435,61.927 437.198,48.896 380.018,98.205 429.326,155.384 442.356,144.148 404.285,99.999 		
			"/>
	</g>
	<g>
		<polygon fill="#80BDFF" points="833.272,548.205 848.024,557.062 886.895,492.333 822.165,453.463 813.308,468.213 
			863.286,498.226 		"/>
	</g>
	<g>
		<polygon fill="#80BDFF" points="1222.139,360.273 1238.203,354.108 1211.154,283.616 1140.662,310.665 1146.826,326.728 
			1201.255,305.844 		"/>
	</g>
	<g>
		<polygon fill="#80BDFF" points="270.226,336.338 268.78,319.192 193.542,325.535 199.885,400.771 217.03,399.326 212.134,341.235 
					"/>
	</g>
	<g>
		<polygon fill="#F9FCFF" points="1553.455,607.08 1553.455,572.099 1399.955,572.099 1399.955,725.599 1434.937,725.599 
			1434.937,607.08 		"/>
	</g>
	<g>
		<polygon fill="#AFD5FF" points="293.518,1161.444 293.518,1126.463 140.018,1126.463 140.018,1279.963 174.999,1279.963 
			174.999,1161.444 		"/>
	</g>
</g>
</svg>
