<?xml version="1.0" encoding="utf-8"?>
<!-- Generator: Adobe Illustrator 16.0.0, SVG Export Plug-In . SVG Version: 6.00 Build 0)  -->
<!DOCTYPE svg PUBLIC "-//W3C//DTD SVG 1.1//EN" "http://www.w3.org/Graphics/SVG/1.1/DTD/svg11.dtd">
<svg version="1.1" id="Layer_1" xmlns="http://www.w3.org/2000/svg" xmlns:xlink="http://www.w3.org/1999/xlink" x="0px" y="0px"
	 width="20px" height="20px" viewBox="0 0 20 20" enable-background="new 0 0 20 20" xml:space="preserve">
<g id="Layer_2">
</g>
<g id="Layer_1_1_">
</g>
<g>
	<path d="M9.15,13.591c-0.006-0.224-0.009-0.392-0.009-0.505c0-0.66,0.093-1.23,0.28-1.708c0.135-0.362,0.357-0.727,0.662-1.093
		c0.225-0.267,0.627-0.658,1.208-1.172c0.582-0.513,0.961-0.923,1.136-1.228c0.176-0.305,0.263-0.639,0.263-1
		c0-0.654-0.257-1.228-0.767-1.723c-0.511-0.495-1.137-0.742-1.878-0.742c-0.715,0-1.313,0.225-1.793,0.673
		C7.773,5.541,7.459,6.241,7.31,7.193L5.583,6.988C5.739,5.712,6.201,4.735,6.97,4.057c0.768-0.68,1.785-1.018,3.049-1.018
		c1.339,0,2.406,0.364,3.203,1.092s1.196,1.609,1.196,2.643c0,0.598-0.141,1.149-0.421,1.653c-0.279,0.504-0.828,1.118-1.644,1.84
		c-0.547,0.485-0.906,0.844-1.073,1.074c-0.169,0.23-0.294,0.495-0.374,0.794s-0.127,0.785-0.141,1.458L9.15,13.591L9.15,13.591z
		 M9.048,16.962v-1.915h1.913v1.915H9.048z"/>
</g>
</svg>
